<?xml version="1.0" encoding="UTF-8"?>
<svg width="312px" height="255px" viewBox="0 0 312 255" version="1.1" xmlns="http://www.w3.org/2000/svg" xmlns:xlink="http://www.w3.org/1999/xlink">
    <!-- Generator: Sketch 53.2 (72643) - https://sketchapp.com -->
    <title>Group 5</title>
    <desc>Created with Sketch.</desc>
    <g id="Page-1" stroke="none" stroke-width="1" fill="none" fill-rule="evenodd">
        <g id="welcome2" transform="translate(-32.000000, -94.000000)">
            <g id="Group-5" transform="translate(33.882906, 94.615510)">
                <g id="Group-3" transform="translate(74.000000, 62.000000)" stroke="#FFFFFF" stroke-linecap="round" stroke-linejoin="round">
                    <g id="Group-2" transform="translate(0.117094, 0.384490)" stroke-width="2.8">
                        <polyline id="Path" points="48.4870553 31.0793006 64.715507 31.0793006 64.715507 39.2428571 79.5621302 24.901474 64.715507 10.5285714 64.715507 18.692128 40.260355 18.692128"></polyline>
                        <path d="M116.73086,19.1428571 L140.204921,19.1428571 C152.234776,19.1604701 161.982553,29.0008468 162,41.1449815 L162,56.8150992 C161.982553,68.9592339 152.234776,78.7996105 140.204921,78.8172235 L99.0223577,78.8172235 L99.0223577,87.1 L84.3550296,72.5171966 L99.0223577,57.9663731 L99.0223577,66.2491496 L140.204921,66.2491496 C145.453652,66.2491496 149.708589,61.953792 149.708589,56.6552 L149.708589,40.9850824 C149.708589,35.6864903 145.453652,31.3911328 140.204921,31.3911328 L116.73086,31.3911328" id="Path"></path>
                        <path d="M109.278057,25.8427509 C109.278037,30.1040232 106.705522,33.9450868 102.761464,35.5727809 C98.8174053,37.200475 94.2796374,36.2937915 91.2665698,33.2760062 C88.2535022,30.2582209 87.3593617,25.7244908 89.0015685,21.7913411 C90.6437753,17.8581913 94.4984591,15.3013039 98.7661006,15.3143353 C101.559641,15.3143222 104.238296,16.4245892 106.2106,18.3999812 C108.182904,20.3753731 109.286626,23.0534063 109.278057,25.8427509 L109.278057,25.8427509 Z" id="Path"></path>
                        <path d="M51.7803869,66.0428571 L21.9771167,66.0428571 C9.84678502,66.0604536 0.0175929671,75.8915774 0,88.0242931 L0,103.743576 C0.0175929671,115.876292 9.84678502,125.707415 21.9771167,125.725012 L96.4373769,125.725012 L96.4373769,134 L111.195266,119.430909 L96.4373769,104.893767 L96.4373769,113.168755 L21.9771167,113.168755 C16.7470248,113.081558 12.5530625,108.815673 12.553789,103.583827 L12.553789,87.9284438 C12.6392371,82.7588753 16.808564,78.588729 21.9771167,78.5032642 L51.7803869,78.5032642" id="Path"></path>
                        <path d="M78.6035008,72.7105555 C78.6165408,76.9747347 76.0523148,80.825679 72.1092935,82.4635302 C68.1662722,84.1013813 63.623204,83.2026628 60.603433,80.1874187 C57.5836619,77.1721747 56.6835941,72.6359171 58.3239043,68.6988068 C59.9642144,64.7616966 63.8209405,62.2013147 68.0915217,62.2143351 C73.8897781,62.2320133 78.5857961,66.9209914 78.6035008,72.7105555 Z" id="Path-Copy"></path>
                        <path d="M150.496967,118.15869 C150.516527,124.554959 146.670188,130.331376 140.755656,132.788152 C134.841124,135.244929 128.026522,133.896851 123.496865,129.373985 C118.967209,124.851119 117.617107,118.046733 120.077572,112.141067 C122.538038,106.235402 128.323127,102.394829 134.728999,102.41436 C143.426383,102.440877 150.47041,109.474344 150.496967,118.15869 Z" id="Path-Copy"></path>
                        <path d="M30.6269231,11.1168595 C30.6269231,17.299081 26.1325196,22.9714286 20.5936421,22.9714286 C15.0547646,22.9714286 10.5920118,17.2034796 10.5920118,11.1168595 C10.2204656,7.27904286 12.0444008,3.5614812 15.2973726,1.52634908 C18.5503445,-0.508783028 22.6685904,-0.508783028 25.9215623,1.52634908 C29.1745341,3.5614812 30.9984693,7.27904286 30.6269231,11.1168595 L30.6269231,11.1168595 Z" id="Path"></path>
                        <path d="M0,44.0285714 L0,40.3030769 C0,30.7310718 7.69530396,22.9714286 17.1879425,22.9714286 L24.1273734,22.9714286 C33.5823512,23.0248913 41.2190836,30.7688976 41.2189349,40.3030769 L41.2189349,43.898989" id="Path"></path>
                        <path d="M9.10650888,38.2857143 L9.10650888,43.0714286" id="Path"></path>
                        <path d="M32.112426,38.2857143 L32.112426,43.0714286" id="Path"></path>
                    </g>
                    <polyline id="Path" stroke-width="3" points="129 118.489796 133.936709 124 142 115"></polyline>
                </g>
                <path d="M14.395189,153 L11.604811,153 C8.50935936,153 6,155.686292 6,159 C6,162.313708 8.50935936,165 11.604811,165 L14.395189,165 C17.4906406,165 20,162.313708 20,159 C20,155.686292 17.4906406,153 14.395189,153 Z" id="Path" fill="#FFFFFF" fill-rule="nonzero" opacity="0.15"></path>
                <path d="M75.0343822,153 L63.7432336,153 C60.4485138,153 57.7776158,150.313708 57.7776158,147 C57.7776158,143.686292 60.4485138,141 63.7432336,141 L68.1726411,141 C71.467361,141 74.1382593,138.313708 74.1382593,135 C74.1382593,131.686292 71.467361,129 68.1726411,129 L16.9656182,129 C13.6708982,129 11,131.686292 11,135 C11,138.313708 13.6708982,141 16.9656182,141 L34.8880762,141 C38.1827961,141 40.8536944,143.686292 40.8536944,147 C40.8536944,150.313708 38.1827961,153 34.8880762,153 L31.5084127,153 C28.2136927,153 25.5427945,155.686292 25.5427945,159 C25.5427945,162.313708 28.2136927,165 31.5084127,165 L75.0343822,165 C78.329102,165 81,162.313708 81,159 C81,155.686292 78.329102,153 75.0343822,153 L75.0343822,153 Z" id="Path" fill="#FFFFFF" fill-rule="nonzero" opacity="0.15"></path>
                <path d="M151.595197,230 L154.404803,230 C157.494945,230 160,227.313708 160,224 C160,220.686292 157.494945,218 154.404803,218 L151.595197,218 C148.505055,218 146,220.686292 146,224 C146,227.313708 148.505055,230 151.595197,230 L151.595197,230 Z" id="Path" fill="#FFFFFF" fill-rule="nonzero" opacity="0.193057106"></path>
                <path d="M272.913518,242 L244.534005,242 C241.724819,242 239.447523,239.313708 239.447523,236 C239.447523,232.686292 241.724819,230 244.534005,230 L249.751469,230 C252.560656,230 254.837951,227.313708 254.837951,224 C254.837951,220.686292 252.560656,218 249.751469,218 L175.528128,218 C172.718941,218 170.441646,220.686292 170.441646,224 C170.441646,227.313708 172.718941,230 175.528128,230 L192.992443,230 C195.80163,230 198.078925,232.686292 198.078925,236 C198.078925,239.313708 195.80163,242 192.992443,242 L127.086482,242 C124.277296,242 122,244.686292 122,248 C122,251.313708 124.277296,254 127.086482,254 L272.913518,254 C275.722704,254 278,251.313708 278,248 C278,244.686292 275.722704,242 272.913518,242 L272.913518,242 Z" id="Path" fill="#FFFFFF" fill-rule="nonzero" opacity="0.193057106"></path>
                <g id="Group" transform="translate(4.000000, 0.000000)" fill="#FFFFFF" fill-rule="nonzero" opacity="0.193057106">
                    <path d="M144.111939,-0.615510204 L141.122249,-0.615510204 C137.805693,-0.615510204 135.117094,2.0707813 135.117094,5.3844898 C135.117094,8.69819829 137.805693,11.3844898 141.122249,11.3844898 L144.111939,11.3844898 C147.428495,11.3844898 150.117094,8.69819829 150.117094,5.3844898 C150.117094,2.0707813 147.428495,-0.615510204 144.111939,-0.615510204 L144.111939,-0.615510204 Z" id="Path"></path>
                    <path d="M9.11193938,23.3844898 L6.12224866,23.3844898 C2.80569333,23.3844898 0.117094017,26.0707813 0.117094017,29.3844898 C0.117094017,32.6981983 2.80569333,35.3844898 6.12224866,35.3844898 L9.11193938,35.3844898 C12.4284947,35.3844898 15.117094,32.6981983 15.117094,29.3844898 C15.117094,26.0707813 12.4284947,23.3844898 9.11193938,23.3844898 L9.11193938,23.3844898 Z" id="Path"></path>
                    <path d="M138.205051,23.7178231 L114.200119,23.7178231 C110.920914,23.7178231 108.262593,21.1061508 108.262593,17.8844898 C108.262593,14.6628288 110.920914,12.0511565 114.200119,12.0511565 L123.832671,12.0511565 C127.111876,12.0511565 129.770197,9.43948417 129.770197,6.21782313 C129.770197,2.99616209 127.111876,0.384489796 123.832671,0.384489796 L49.9321372,0.384489796 C46.6529323,0.384489796 43.9946115,2.99616209 43.9946115,6.21782313 C43.9946115,9.43948417 46.6529323,12.0511565 49.9321372,12.0511565 L62.520711,12.0511565 C65.7999158,12.0511565 68.4582366,14.6628288 68.4582366,17.8844898 C68.4582366,21.1061508 65.7999158,23.7178231 62.520711,23.7178231 L26.0546197,23.7178231 C22.7754148,23.7178231 20.117094,26.3294954 20.117094,29.5511565 C20.117094,32.7728175 22.7754148,35.3844898 26.0546197,35.3844898 L138.179568,35.3844898 C141.458773,35.3844898 144.117094,32.7728175 144.117094,29.5511565 C144.117094,26.3294954 141.458773,23.7178231 138.179568,23.7178231 L138.205051,23.7178231 Z" id="Path"></path>
                </g>
                <path d="M75,57 L37,57" id="Path" stroke="#FFFFFF" stroke-width="2.73504274" opacity="0.401855469" stroke-linecap="round" stroke-linejoin="round"></path>
                <path d="M82.5,57 L81.5,57" id="Path" stroke="#FFFFFF" stroke-width="2.73504274" opacity="0.401855469" stroke-linecap="round" stroke-linejoin="round"></path>
                <path d="M61,66 L21,66" id="Path" stroke="#FFFFFF" stroke-width="2.73504274" opacity="0.7" stroke-linecap="round" stroke-linejoin="round"></path>
                <path d="M45.9999424,87.999983 C45.9999192,90.0244361 44.7791282,91.8490856 42.9078551,92.6215563 C41.036582,93.3940271 38.8841721,92.9618517 37.456112,91.5269184 C36.0280519,90.0919852 35.6062069,87.9375161 36.3876397,86.0699597 C37.1690724,84.2024034 38.9995465,82.9903713 41.0239659,83.0000576 C42.3478323,83.0000423 43.6171304,83.5275809 44.5509978,84.4659429 C45.4848651,85.4043048 46.0063072,86.676125 45.9999424,87.999983 Z" id="Path" stroke="#FFFFFF" stroke-width="2.73504274" opacity="0.467936198" stroke-linecap="round" stroke-linejoin="round"></path>
                <path d="M308,129 L262,129" id="Path" stroke="#FFFFFF" stroke-width="2.73504274" opacity="0.7" stroke-linecap="round" stroke-linejoin="round"></path>
                <path d="M292,138 L278,138" id="Path" stroke="#FFFFFF" stroke-width="2.73504274" opacity="0.467936198" stroke-linecap="round" stroke-linejoin="round"></path>
                <path d="M13.43,182 L14.57,182" id="Path" stroke="#FFFFFF" stroke-width="2.73504274" opacity="0.47" stroke-linecap="round" stroke-linejoin="round"></path>
                <path d="M28,191 L44,191" id="Path" stroke="#FFFFFF" stroke-width="2.73504274" opacity="0.7" stroke-linecap="round" stroke-linejoin="round"></path>
                <path d="M51.38,191 L52.62,191" id="Path" stroke="#FFFFFF" stroke-width="2.73504274" opacity="0.7" stroke-linecap="round" stroke-linejoin="round"></path>
                <path d="M22,182 L66,182" id="Path" stroke="#FFFFFF" stroke-width="2.73504274" opacity="0.47" stroke-linecap="round" stroke-linejoin="round"></path>
                <path d="M5.11709402,113.38449 L0.117094017,113.38449 L5.11709402,113.38449 L5.11709402,118.38449 L5.11709402,113.38449 Z M5.11709402,113.38449 L10.117094,113.38449 L5.11709402,113.38449 L5.11709402,108.38449 L5.11709402,113.38449 Z" id="Combined-Shape" stroke="#FFFFFF" stroke-width="2.73504274" opacity="0.7" stroke-linecap="round" stroke-linejoin="round"></path>
                <path d="M122.617094,208.88449 L119.117094,208.88449 L122.617094,208.88449 L122.617094,213.38449 L122.617094,208.88449 Z M122.617094,208.88449 L127.117094,208.88449 L122.617094,208.88449 L122.617094,205.38449 L122.617094,208.88449 Z" id="Combined-Shape" stroke="#FFFFFF" stroke-width="2.73504274" opacity="0.7" stroke-linecap="round" stroke-linejoin="round"></path>
                <path d="M184.117094,42.3844898 L179.117094,42.3844898 L184.117094,42.3844898 L184.117094,47.3844898 L184.117094,42.3844898 Z M184.117094,42.3844898 L189.117094,42.3844898 L184.117094,42.3844898 L184.117094,37.3844898 L184.117094,42.3844898 Z" id="Combined-Shape" stroke="#FFFFFF" stroke-width="2.73504274" opacity="0.7" stroke-linecap="round" stroke-linejoin="round"></path>
                <path d="M262.57,16 L261.43,16" id="Path" stroke="#FFFFFF" stroke-width="2.73504274" opacity="0.7" stroke-linecap="round" stroke-linejoin="round"></path>
                <path d="M246,25 L230,25" id="Path" stroke="#FFFFFF" stroke-width="2.73504274" opacity="0.47" stroke-linecap="round" stroke-linejoin="round"></path>
                <path d="M222.49,25 L223.51,25" id="Path" stroke="#FFFFFF" stroke-width="2.73504274" opacity="0.47" stroke-linecap="round" stroke-linejoin="round"></path>
                <path d="M254,16 L214,16" id="Path" stroke="#FFFFFF" stroke-width="2.73504274" opacity="0.7" stroke-linecap="round" stroke-linejoin="round"></path>
                <circle id="Oval" stroke="#FFFFFF" stroke-width="2.73504274" opacity="0.619628906" stroke-linecap="round" stroke-linejoin="round" cx="277" cy="42" r="4"></circle>
                <path d="M279.999942,184.976005 C280.009629,187.000436 278.797597,188.830921 276.93004,189.612358 C275.062484,190.393795 272.908015,189.971948 271.473082,188.54388 C270.038148,187.115811 269.605973,184.963389 270.378444,183.092105 C271.150914,181.220821 272.975564,180.000023 275.000017,180 C277.752084,179.999968 279.986775,182.223968 279.999942,184.976005 Z" id="Path" stroke="#FFFFFF" stroke-width="2.73504274" opacity="0.619628906" stroke-linecap="round" stroke-linejoin="round"></path>
                <path d="M299.5,138 L298.5,138" id="Path" stroke="#FFFFFF" stroke-width="2.73504274" opacity="0.47" stroke-linecap="round" stroke-linejoin="round"></path>
                <circle id="Oval" fill="#FFFFFF" fill-rule="nonzero" opacity="0.189015997" cx="52" cy="222" r="10"></circle>
                <path d="M242.015661,183.551889 C253.918162,179.125712 259.978311,165.888478 255.551383,153.985698 C251.124456,142.082919 237.886839,136.021935 225.984339,140.448111 C214.081838,144.874288 208.021689,158.111522 212.448617,170.014302 C216.875544,181.917081 230.113161,187.978065 242.015661,183.551889 Z" id="Oval" fill="#FFFFFF" fill-rule="nonzero" opacity="0.15"></path>
                <path d="M291.604811,82 L294.395189,82 C297.490641,82 300,79.3137085 300,76 C300,72.6862915 297.490641,70 294.395189,70 L291.604811,70 C288.509359,70 286,72.6862915 286,76 C286,79.3137085 288.509359,82 291.604811,82 Z" id="Path" fill="#FFFFFF" fill-rule="nonzero" opacity="0.15"></path>
                <path d="M205.968114,82 L234.82243,82 C238.076629,82 240.714679,84.6862915 240.714679,88 C240.714679,91.3137085 238.076629,94 234.82243,94 L227.943925,94 C224.689726,94 222.051677,96.6862915 222.051677,100 C222.051677,103.313708 224.689726,106 227.943925,106 L286.107752,106 C289.361951,106 292,103.313708 292,100 C292,96.6862916 289.361951,94.0000001 286.107752,94 L268.557449,94 C265.30325,94 262.665201,91.3137085 262.665201,88 C262.665201,84.6862915 265.30325,82 268.557449,82 L274.171523,82 C277.425722,82 280.063772,79.3137085 280.063772,76 C280.063772,72.6862915 277.425722,70 274.171523,70 L205.892249,70 C202.63805,70 200,72.6862915 200,76 C200,79.3137085 202.63805,82 205.892249,82 L205.968114,82 Z" id="Path" fill="#FFFFFF" fill-rule="nonzero" opacity="0.15"></path>
                <path d="M14.5,66 L13.5,66" id="Path" stroke="#FFFFFF" stroke-width="2.73504274" opacity="0.7" stroke-linecap="round" stroke-linejoin="round"></path>
            </g>
        </g>
    </g>
</svg>