<?xml version="1.0" encoding="UTF-8"?>
<svg width="312px" height="255px" viewBox="0 0 312 255" version="1.1" xmlns="http://www.w3.org/2000/svg" xmlns:xlink="http://www.w3.org/1999/xlink">
    <!-- Generator: Sketch 53.2 (72643) - https://sketchapp.com -->
    <title>Group 4</title>
    <desc>Created with Sketch.</desc>
    <g id="Page-1" stroke="none" stroke-width="1" fill="none" fill-rule="evenodd">
        <g id="welcome1" transform="translate(-32.000000, -94.000000)">
            <g id="Group-4" transform="translate(33.882906, 94.615510)">
                <path d="M14.395189,153 L11.604811,153 C8.50935936,153 6,155.686292 6,159 C6,162.313708 8.50935936,165 11.604811,165 L14.395189,165 C17.4906406,165 20,162.313708 20,159 C20,155.686292 17.4906406,153 14.395189,153 Z" id="Path" fill="#FFFFFF" fill-rule="nonzero" opacity="0.15"></path>
                <path d="M75.0343822,153 L63.7432336,153 C60.4485138,153 57.7776158,150.313708 57.7776158,147 C57.7776158,143.686292 60.4485138,141 63.7432336,141 L68.1726411,141 C71.467361,141 74.1382593,138.313708 74.1382593,135 C74.1382593,131.686292 71.467361,129 68.1726411,129 L16.9656182,129 C13.6708982,129 11,131.686292 11,135 C11,138.313708 13.6708982,141 16.9656182,141 L34.8880762,141 C38.1827961,141 40.8536944,143.686292 40.8536944,147 C40.8536944,150.313708 38.1827961,153 34.8880762,153 L31.5084127,153 C28.2136927,153 25.5427945,155.686292 25.5427945,159 C25.5427945,162.313708 28.2136927,165 31.5084127,165 L75.0343822,165 C78.329102,165 81,162.313708 81,159 C81,155.686292 78.329102,153 75.0343822,153 L75.0343822,153 Z" id="Path" fill="#FFFFFF" fill-rule="nonzero" opacity="0.15"></path>
                <path d="M151.595197,230 L154.404803,230 C157.494945,230 160,227.313708 160,224 C160,220.686292 157.494945,218 154.404803,218 L151.595197,218 C148.505055,218 146,220.686292 146,224 C146,227.313708 148.505055,230 151.595197,230 L151.595197,230 Z" id="Path" fill="#FFFFFF" fill-rule="nonzero" opacity="0.193057106"></path>
                <path d="M272.913518,242 L244.534005,242 C241.724819,242 239.447523,239.313708 239.447523,236 C239.447523,232.686292 241.724819,230 244.534005,230 L249.751469,230 C252.560656,230 254.837951,227.313708 254.837951,224 C254.837951,220.686292 252.560656,218 249.751469,218 L175.528128,218 C172.718941,218 170.441646,220.686292 170.441646,224 C170.441646,227.313708 172.718941,230 175.528128,230 L192.992443,230 C195.80163,230 198.078925,232.686292 198.078925,236 C198.078925,239.313708 195.80163,242 192.992443,242 L127.086482,242 C124.277296,242 122,244.686292 122,248 C122,251.313708 124.277296,254 127.086482,254 L272.913518,254 C275.722704,254 278,251.313708 278,248 C278,244.686292 275.722704,242 272.913518,242 L272.913518,242 Z" id="Path" fill="#FFFFFF" fill-rule="nonzero" opacity="0.193057106"></path>
                <g id="Group" transform="translate(4.000000, 0.000000)" fill="#FFFFFF" fill-rule="nonzero" opacity="0.193057106">
                    <path d="M144.111939,-0.615510204 L141.122249,-0.615510204 C137.805693,-0.615510204 135.117094,2.0707813 135.117094,5.3844898 C135.117094,8.69819829 137.805693,11.3844898 141.122249,11.3844898 L144.111939,11.3844898 C147.428495,11.3844898 150.117094,8.69819829 150.117094,5.3844898 C150.117094,2.0707813 147.428495,-0.615510204 144.111939,-0.615510204 L144.111939,-0.615510204 Z" id="Path"></path>
                    <path d="M9.11193938,23.3844898 L6.12224866,23.3844898 C2.80569333,23.3844898 0.117094017,26.0707813 0.117094017,29.3844898 C0.117094017,32.6981983 2.80569333,35.3844898 6.12224866,35.3844898 L9.11193938,35.3844898 C12.4284947,35.3844898 15.117094,32.6981983 15.117094,29.3844898 C15.117094,26.0707813 12.4284947,23.3844898 9.11193938,23.3844898 L9.11193938,23.3844898 Z" id="Path"></path>
                    <path d="M138.205051,23.7178231 L114.200119,23.7178231 C110.920914,23.7178231 108.262593,21.1061508 108.262593,17.8844898 C108.262593,14.6628288 110.920914,12.0511565 114.200119,12.0511565 L123.832671,12.0511565 C127.111876,12.0511565 129.770197,9.43948417 129.770197,6.21782313 C129.770197,2.99616209 127.111876,0.384489796 123.832671,0.384489796 L49.9321372,0.384489796 C46.6529323,0.384489796 43.9946115,2.99616209 43.9946115,6.21782313 C43.9946115,9.43948417 46.6529323,12.0511565 49.9321372,12.0511565 L62.520711,12.0511565 C65.7999158,12.0511565 68.4582366,14.6628288 68.4582366,17.8844898 C68.4582366,21.1061508 65.7999158,23.7178231 62.520711,23.7178231 L26.0546197,23.7178231 C22.7754148,23.7178231 20.117094,26.3294954 20.117094,29.5511565 C20.117094,32.7728175 22.7754148,35.3844898 26.0546197,35.3844898 L138.179568,35.3844898 C141.458773,35.3844898 144.117094,32.7728175 144.117094,29.5511565 C144.117094,26.3294954 141.458773,23.7178231 138.179568,23.7178231 L138.205051,23.7178231 Z" id="Path"></path>
                </g>
                <path d="M75,57 L37,57" id="Path" stroke="#FFFFFF" stroke-width="2.73504274" opacity="0.401855469" stroke-linecap="round" stroke-linejoin="round"></path>
                <path d="M82.5,57 L81.5,57" id="Path" stroke="#FFFFFF" stroke-width="2.73504274" opacity="0.401855469" stroke-linecap="round" stroke-linejoin="round"></path>
                <path d="M61,66 L21,66" id="Path" stroke="#FFFFFF" stroke-width="2.73504274" opacity="0.7" stroke-linecap="round" stroke-linejoin="round"></path>
                <path d="M45.9999424,87.999983 C45.9999192,90.0244361 44.7791282,91.8490856 42.9078551,92.6215563 C41.036582,93.3940271 38.8841721,92.9618517 37.456112,91.5269184 C36.0280519,90.0919852 35.6062069,87.9375161 36.3876397,86.0699597 C37.1690724,84.2024034 38.9995465,82.9903713 41.0239659,83.0000576 C42.3478323,83.0000423 43.6171304,83.5275809 44.5509978,84.4659429 C45.4848651,85.4043048 46.0063072,86.676125 45.9999424,87.999983 Z" id="Path" stroke="#FFFFFF" stroke-width="2.73504274" opacity="0.467936198" stroke-linecap="round" stroke-linejoin="round"></path>
                <path d="M308,129 L262,129" id="Path" stroke="#FFFFFF" stroke-width="2.73504274" opacity="0.7" stroke-linecap="round" stroke-linejoin="round"></path>
                <path d="M292,138 L278,138" id="Path" stroke="#FFFFFF" stroke-width="2.73504274" opacity="0.467936198" stroke-linecap="round" stroke-linejoin="round"></path>
                <path d="M13.43,182 L14.57,182" id="Path" stroke="#FFFFFF" stroke-width="2.73504274" opacity="0.47" stroke-linecap="round" stroke-linejoin="round"></path>
                <path d="M28,191 L44,191" id="Path" stroke="#FFFFFF" stroke-width="2.73504274" opacity="0.7" stroke-linecap="round" stroke-linejoin="round"></path>
                <path d="M51.38,191 L52.62,191" id="Path" stroke="#FFFFFF" stroke-width="2.73504274" opacity="0.7" stroke-linecap="round" stroke-linejoin="round"></path>
                <path d="M22,182 L66,182" id="Path" stroke="#FFFFFF" stroke-width="2.73504274" opacity="0.47" stroke-linecap="round" stroke-linejoin="round"></path>
                <path d="M5.11709402,113.38449 L0.117094017,113.38449 L5.11709402,113.38449 L5.11709402,118.38449 L5.11709402,113.38449 Z M5.11709402,113.38449 L10.117094,113.38449 L5.11709402,113.38449 L5.11709402,108.38449 L5.11709402,113.38449 Z" id="Combined-Shape" stroke="#FFFFFF" stroke-width="2.73504274" opacity="0.7" stroke-linecap="round" stroke-linejoin="round"></path>
                <path d="M122.617094,208.88449 L119.117094,208.88449 L122.617094,208.88449 L122.617094,213.38449 L122.617094,208.88449 Z M122.617094,208.88449 L127.117094,208.88449 L122.617094,208.88449 L122.617094,205.38449 L122.617094,208.88449 Z" id="Combined-Shape" stroke="#FFFFFF" stroke-width="2.73504274" opacity="0.7" stroke-linecap="round" stroke-linejoin="round"></path>
                <path d="M184.117094,42.3844898 L179.117094,42.3844898 L184.117094,42.3844898 L184.117094,47.3844898 L184.117094,42.3844898 Z M184.117094,42.3844898 L189.117094,42.3844898 L184.117094,42.3844898 L184.117094,37.3844898 L184.117094,42.3844898 Z" id="Combined-Shape" stroke="#FFFFFF" stroke-width="2.73504274" opacity="0.7" stroke-linecap="round" stroke-linejoin="round"></path>
                <path d="M262.57,16 L261.43,16" id="Path" stroke="#FFFFFF" stroke-width="2.73504274" opacity="0.7" stroke-linecap="round" stroke-linejoin="round"></path>
                <path d="M246,25 L230,25" id="Path" stroke="#FFFFFF" stroke-width="2.73504274" opacity="0.47" stroke-linecap="round" stroke-linejoin="round"></path>
                <path d="M222.49,25 L223.51,25" id="Path" stroke="#FFFFFF" stroke-width="2.73504274" opacity="0.47" stroke-linecap="round" stroke-linejoin="round"></path>
                <path d="M254,16 L214,16" id="Path" stroke="#FFFFFF" stroke-width="2.73504274" opacity="0.7" stroke-linecap="round" stroke-linejoin="round"></path>
                <circle id="Oval" stroke="#FFFFFF" stroke-width="2.73504274" opacity="0.619628906" stroke-linecap="round" stroke-linejoin="round" cx="277" cy="42" r="4"></circle>
                <path d="M279.999942,184.976005 C280.009629,187.000436 278.797597,188.830921 276.93004,189.612358 C275.062484,190.393795 272.908015,189.971948 271.473082,188.54388 C270.038148,187.115811 269.605973,184.963389 270.378444,183.092105 C271.150914,181.220821 272.975564,180.000023 275.000017,180 C277.752084,179.999968 279.986775,182.223968 279.999942,184.976005 Z" id="Path" stroke="#FFFFFF" stroke-width="2.73504274" opacity="0.619628906" stroke-linecap="round" stroke-linejoin="round"></path>
                <path d="M299.5,138 L298.5,138" id="Path" stroke="#FFFFFF" stroke-width="2.73504274" opacity="0.47" stroke-linecap="round" stroke-linejoin="round"></path>
                <circle id="Oval" fill="#FFFFFF" fill-rule="nonzero" opacity="0.189015997" cx="52" cy="222" r="10"></circle>
                <path d="M242.015661,183.551889 C253.918162,179.125712 259.978311,165.888478 255.551383,153.985698 C251.124456,142.082919 237.886839,136.021935 225.984339,140.448111 C214.081838,144.874288 208.021689,158.111522 212.448617,170.014302 C216.875544,181.917081 230.113161,187.978065 242.015661,183.551889 Z" id="Oval" fill="#FFFFFF" fill-rule="nonzero" opacity="0.15"></path>
                <path d="M291.604811,82 L294.395189,82 C297.490641,82 300,79.3137085 300,76 C300,72.6862915 297.490641,70 294.395189,70 L291.604811,70 C288.509359,70 286,72.6862915 286,76 C286,79.3137085 288.509359,82 291.604811,82 Z" id="Path" fill="#FFFFFF" fill-rule="nonzero" opacity="0.15"></path>
                <path d="M205.968114,82 L234.82243,82 C238.076629,82 240.714679,84.6862915 240.714679,88 C240.714679,91.3137085 238.076629,94 234.82243,94 L227.943925,94 C224.689726,94 222.051677,96.6862915 222.051677,100 C222.051677,103.313708 224.689726,106 227.943925,106 L286.107752,106 C289.361951,106 292,103.313708 292,100 C292,96.6862916 289.361951,94.0000001 286.107752,94 L268.557449,94 C265.30325,94 262.665201,91.3137085 262.665201,88 C262.665201,84.6862915 265.30325,82 268.557449,82 L274.171523,82 C277.425722,82 280.063772,79.3137085 280.063772,76 C280.063772,72.6862915 277.425722,70 274.171523,70 L205.892249,70 C202.63805,70 200,72.6862915 200,76 C200,79.3137085 202.63805,82 205.892249,82 L205.968114,82 Z" id="Path" fill="#FFFFFF" fill-rule="nonzero" opacity="0.15"></path>
                <path d="M14.5,66 L13.5,66" id="Path" stroke="#FFFFFF" stroke-width="2.73504274" opacity="0.7" stroke-linecap="round" stroke-linejoin="round"></path>
                <g id="Group-2" transform="translate(99.000000, 55.000000)" stroke="#FFFFFF" stroke-linecap="round" stroke-linejoin="round" stroke-width="3">
                    <path d="M42.6173471,43.3844898 C33.9167767,43.384464 26.0739191,38.140548 22.7492689,30.1002331 C19.4246186,22.0599182 21.27366,12.8084239 27.4333905,6.66369707 C33.5931211,0.518970262 42.8490952,-1.30750156 50.881275,2.03675022 C58.9134548,5.38100199 64.1382248,13.2366284 64.1170298,21.9371755 C64.088154,33.7906671 54.4708705,43.384525 42.6173471,43.3844898 Z" id="Path"></path>
                    <path d="M18.1176371,112.38449 L18.1176371,128.700279 C18.0970253,130.200519 18.6639201,131.646605 19.6914614,132.714933 C20.7190028,133.783261 22.1214045,134.384639 23.5848368,134.38449 L61.6498943,134.38449 C64.6693453,134.38449 67.117094,131.874928 67.117094,128.779227 L67.117094,126.963437" id="Path"></path>
                    <polyline id="Path" points="84.0936198 102.827171 80.8132101 119.38449 33.117094 119.38449 36.0069788 104.793851 39.2353185 88.5023002 46.4209779 52.3844898 94.117094 52.3844898 87.0876446 87.8113046"></polyline>
                    <path d="M80.3403063,94.0993585 C79.2798319,98.5778812 82.1508725,102.002634 85.7202743,103.89942 C86.6860356,104.473654 87.8634053,104.542022 88.8869867,104.083306 C89.9105682,103.624589 90.6565142,102.694289 90.8933205,101.581126 L93.0401346,91.7020316 C93.2667606,90.6206127 92.9866291,89.4933538 92.2821722,88.651965 C91.5777153,87.8105762 90.52909,87.3507953 89.4448675,87.4079187 C85.2189905,87.0966548 81.3822311,89.916499 80.3403063,94.0993585 L80.3403063,94.0993585 Z" id="Path"></path>
                    <path d="M39.117094,86.384341 L20.3942025,86.384341 C19.7926143,86.3914057 19.213337,86.1465881 18.7855531,85.7044845 C18.3577693,85.2623808 18.117056,84.6597588 18.117094,84.0310075 L18.117094,75.3844898" id="Path"></path>
                    <path d="M37.117094,52.3844898 L21.5787355,52.3844898 C15.8690045,52.3844232 10.3946136,54.7089031 6.36685976,58.8436009 C2.33910596,62.9782987 0.0900527915,68.5823341 0.11733944,74.4157241 L0.11733944,93.6701321 C0.11733944,99.5875085 4.81257848,104.38449 10.6044494,104.38449 L35.6299244,104.38449" id="Path"></path>
                    <path d="M39.117094,86.3844898 L30.117094,77.3844898" id="Path"></path>
                    <path d="M73.117094,42.1437238 C75.0444176,39.841083 76.3863584,37.0920295 77.0249806,34.1381621 C74.6154079,31.4103843 73.2717884,27.8787835 73.2482312,24.2112657 C73.2482312,14.257684 83.7392019,6.27880758 96.8529154,6.3855484 C109.966629,6.49228922 120.195325,14.6045917 120.116643,24.5581733 C120.037961,34.511755 109.625672,42.4639462 96.5119589,42.3838906 C91.8105127,42.3915663 87.1799034,41.2182912 83.0310614,38.9681843 C80.0205288,40.8113152 76.6224313,41.8997586 73.117094,42.1437238 L73.117094,42.1437238 Z" id="Path"></path>
                    <polyline id="Path" points="90.117094 22.8742857 95.4335497 28.3844898 104.117094 19.3844898"></polyline>
                </g>
            </g>
        </g>
    </g>
</svg>