<?xml version="1.0" encoding="UTF-8"?>
<svg width="208px" height="185px" viewBox="0 0 208 185" version="1.1" xmlns="http://www.w3.org/2000/svg" xmlns:xlink="http://www.w3.org/1999/xlink">
    <!-- Generator: Sketch 53.2 (72643) - https://sketchapp.com -->
    <title>TWEC2</title>
    <desc>Created with Sketch.</desc>
    <defs>
        <linearGradient x1="51.2502946%" y1="127.847129%" x2="50.9503317%" y2="-91.7591703%" id="linearGradient-1">
            <stop stop-color="#269AFF" offset="0%"></stop>
            <stop stop-color="#1D34D9" offset="100%"></stop>
        </linearGradient>
        <linearGradient x1="95.3559316%" y1="272.579278%" x2="94.4538558%" y2="-86.5024589%" id="linearGradient-2">
            <stop stop-color="#269AFF" offset="0%"></stop>
            <stop stop-color="#1D34D9" offset="100%"></stop>
        </linearGradient>
        <linearGradient x1="87.7400868%" y1="272.579278%" x2="88.6421626%" y2="-86.5024589%" id="linearGradient-3">
            <stop stop-color="#269AFF" offset="0%"></stop>
            <stop stop-color="#1D34D9" offset="100%"></stop>
        </linearGradient>
        <linearGradient x1="57.6486997%" y1="481.415853%" x2="55.8136717%" y2="-152.66843%" id="linearGradient-4">
            <stop stop-color="#269AFF" offset="0%"></stop>
            <stop stop-color="#1D34D9" offset="100%"></stop>
        </linearGradient>
        <linearGradient x1="83.1746168%" y1="100%" x2="83.2030761%" y2="-70.0729184%" id="linearGradient-5">
            <stop stop-color="#B052FA" offset="0%"></stop>
            <stop stop-color="#4E2CF3" offset="100%"></stop>
        </linearGradient>
        <linearGradient x1="83.1746168%" y1="100%" x2="83.1461575%" y2="-70.0729184%" id="linearGradient-6">
            <stop stop-color="#B052FA" offset="0%"></stop>
            <stop stop-color="#4E2CF3" offset="100%"></stop>
        </linearGradient>
    </defs>
    <g id="Page-1" stroke="none" stroke-width="1" fill="none" fill-rule="evenodd">
        <g id="welcome" transform="translate(-84.000000, -241.000000)">
            <g id="TWEC2" transform="translate(83.000000, 240.000000)">
                <g id="Group" transform="translate(21.171652, 103.258730)" fill="#282828" fill-rule="nonzero">
                    <g transform="translate(0.000000, 0.539120)" id="Path">
                        <polygon points="11.6600901 40.1849148 11.6600901 8.91596395 0.383094122 8.91596395 0.383094122 0.343958459 31.8399776 0.343958459 31.8399776 8.91596395 20.6169386 8.91596395 20.6169386 40.1849148"></polygon>
                    </g>
                    <polygon id="Path" points="55.5270649 40.7240346 47.487484 40.7240346 34.4299097 0.883078301 44.2500689 0.883078301 51.6961237 26.8147427 60.2752737 0.883078301 66.2644917 0.883078301 74.9515555 26.8147427 82.2896965 0.883078301 92.1098556 0.883078301 79.1062383 40.7240346 71.0666574 40.7240346 63.2968611 15.9245219"></polygon>
                    <polygon id="Path" points="124.376093 40.7240346 96.5882799 40.7240346 96.5882799 0.883078301 124.43005 0.883078301 124.43005 9.18552387 105.545128 9.18552387 105.545128 16.5714657 123.02717 16.5714657 123.02717 24.8199993 105.545128 24.8199993 105.545128 32.4215891 124.376093 32.4215891"></polygon>
                    <path d="M149.250232,41.3170665 C143.422885,41.3170665 138.550575,39.430147 134.627907,35.6563081 C130.705239,31.8463482 128.746603,26.9403576 128.746603,20.9383364 C128.746603,14.9001942 130.743009,9.94029165 134.735821,6.05862879 C138.766403,2.14084489 143.638713,0.182222507 149.358146,0.182222507 C152.881533,0.182222507 156.156718,0.910034294 159.178305,2.36565787 C162.199893,3.82128144 164.627954,5.78906886 166.462489,8.26902014 L160.635142,14.1993384 C157.613555,10.5689054 154.014628,8.754228 149.843758,8.754228 C146.536199,8.754228 143.73044,9.90417062 141.426479,12.204595 C139.122519,14.5044802 137.973236,17.3979364 137.973236,20.8844244 C137.973236,24.2986704 139.106332,27.1382146 141.372522,29.402518 C143.638713,31.6668213 146.444473,32.798973 149.789802,32.798973 C154.106355,32.798973 157.791613,30.9659655 160.85097,27.2999506 L166.840188,32.9067969 C164.967883,35.4584511 162.469677,37.4979415 159.340176,39.0258071 C156.210675,40.5531336 152.849159,41.3170665 149.250232,41.3170665 Z" id="Path"></path>
                </g>
                <g id="Group" transform="translate(71.956905, 0.749918)">
                    <g id="Path">
                        <g transform="translate(18.909772, 23.022357)" fill="url(#linearGradient-1)">
                            <polygon points="12.2944015 59.0079727 12.2944015 35.8906619 15.5822617 35.8906619 15.5822617 59.0079727 27.8187139 59.0079727 27.8187139 0.239835398 0.0579492999 0.239835398 0.0579492999 59.0079727"></polygon>
                        </g>
                        <g transform="translate(0.005490, 0.271403)" fill="url(#linearGradient-2)">
                            <polygon points="12.3157512 0.155418361 0.0213497421 0.155418361 18.952471 36.0966762 31.2468725 36.0966762"></polygon>
                        </g>
                        <g transform="translate(49.943147, 18.403545) scale(-1, 1) translate(-49.943147, -18.403545) translate(34.235836, 0.271403)" fill="url(#linearGradient-3)">
                            <polygon points="12.3157512 0.155418361 0.0213497421 0.155418361 18.952471 36.0966762 31.2468725 36.0966762"></polygon>
                        </g>
                    </g>
                    <g transform="translate(22.625786, 0.350179)" fill="url(#linearGradient-4)" id="Oval">
                        <ellipse cx="10.2204265" cy="10.2393273" rx="10.1682721" ry="10.1597897"></ellipse>
                    </g>
                </g>
                <g id="Group" transform="translate(71.441711, 46.298591)">
                    <g transform="translate(9.605083, 18.503272) scale(-1, 1) rotate(-180.000000) translate(-9.605083, -18.503272) translate(0.479556, 0.371141)" fill="url(#linearGradient-5)" id="Path">
                        <polygon points="9.61617215 0.155418263 0.0616269351 0.155418263 8.51399811 36.0966534 18.0685433 36.0966534"></polygon>
                    </g>
                    <g transform="translate(57.081270, 18.503272) rotate(180.000000) translate(-57.081270, -18.503272) translate(47.955743, 0.371141)" fill="url(#linearGradient-6)" id="Path">
                        <polygon points="9.61617215 0.155418263 0.0616269351 0.155418263 8.51399811 36.0966534 18.0685433 36.0966534"></polygon>
                    </g>
                </g>
                <g id="Group" transform="translate(104.199116, 170.706800)">
                    <path d="M0.454604538,0.766874307 L0.720282515,0.766874307" id="Path"></path>
                </g>
                <g id="Group" transform="translate(0.981622, 154.525553)" fill="#282828" fill-rule="nonzero">
                    <polygon id="Path" points="3.13375794 10.4822787 3.13375794 1.97526721 0.200825333 1.97526721 0.200825333 0.455559507 7.65563824 0.455559507 7.65563824 1.97526721 4.72270563 1.97526721 4.72270563 10.4822787"></polygon>
                    <path d="M14.6072844,6.68322995 C14.6072844,6.91850681 14.5896294,7.15819374 14.5543195,7.40229072 L8.83631465,7.40229072 C8.94665824,7.99037262 9.20706911,8.45607527 9.61754726,8.79983968 C10.0302323,9.14360409 10.5797434,9.31537605 11.2682874,9.31537605 C11.6831793,9.31537605 12.1201399,9.24305101 12.5791692,9.09840095 C13.0359917,8.95353038 13.426608,8.76367717 13.753225,8.52840031 L14.3777697,9.627388 C13.4641248,10.3058762 12.4092401,10.64501 11.2131156,10.64501 C9.92871618,10.64501 8.95327885,10.2697137 8.28680357,9.51890045 C7.62253516,8.76808723 7.28929752,7.86358331 7.28929752,6.8053887 C7.28929752,5.70177044 7.63356952,4.79285645 8.32211352,4.07820575 C9.01727813,3.35473491 9.9198887,2.99288925 11.0233246,2.99288925 C12.0826231,2.99288925 12.943303,3.32298246 13.6031577,3.98316889 C14.2740467,4.65261645 14.6072844,5.55271031 14.6072844,6.68322995 Z M11.0233246,4.28173015 C10.4627792,4.28173015 9.98388798,4.45592764 9.5910648,4.80410211 C9.19603475,5.15227659 8.94665824,5.61136414 8.83631465,6.18114428 L13.1021978,6.18114428 C13.0381985,5.61136414 12.8130976,5.15227659 12.4291019,4.80410211 C12.0451062,4.45592764 11.5750425,4.28173015 11.0233246,4.28173015 Z" id="Shape"></path>
                    <path d="M19.5109535,10.64501 C18.3700008,10.64501 17.4409078,10.2877949 16.7258813,9.57314423 C16.0020273,8.8496734 15.6401004,7.93590834 15.6401004,6.83251059 C15.6401004,5.71985169 16.0064411,4.80189708 16.7413294,4.07820575 C17.4828383,3.35473491 18.4251726,2.99288925 19.5639184,2.99288925 C20.2988067,2.99288925 20.9696957,3.16929177 21.5809992,3.5218763 C22.1923027,3.87468134 22.6425046,4.34964512 22.9316048,4.94654715 L21.6957566,5.63848603 C21.4706556,5.24951848 21.1683142,4.93971155 20.793146,4.70906526 C20.4179778,4.47841896 20.0119134,4.36309582 19.5771596,4.36309582 C18.881995,4.36309582 18.3015878,4.59837268 17.8403516,5.06870589 C17.3791153,5.54807974 17.1473938,6.13594114 17.1473938,6.83251059 C17.1473938,7.51099878 17.3747016,8.08981954 17.8271103,8.56919339 C18.2706915,9.03952661 18.8356507,9.27480347 19.5241947,9.27480347 C19.9589485,9.27480347 20.3760472,9.15705479 20.7732842,8.92199843 C21.1705211,8.68672157 21.4662419,8.38838081 21.6560329,8.02653514 L22.8918811,8.74559591 C22.5939534,9.31537605 22.1371309,9.7744636 21.5280343,10.1226381 C20.9167308,10.4710331 20.2436349,10.64501 19.5109535,10.64501 Z" id="Path"></path>
                    <path d="M25.716677,10.4822787 L24.2226248,10.4822787 L24.2226248,0.197791325 L25.6747464,0.197791325 L25.6747464,4.09187694 C25.8932267,3.74811253 26.2066025,3.47667316 26.6192875,3.27777931 C27.0319726,3.07866497 27.4910019,2.97921805 27.9963755,2.97921805 C28.8040906,2.97921805 29.4816002,3.2416168 30.0333182,3.76619379 C30.587243,4.29077078 30.863102,5.04599407 30.863102,6.03208415 L30.863102,10.4822787 L29.3690498,10.4822787 L29.3690498,6.45258366 C29.3690498,5.79239723 29.210155,5.2790659 28.8923655,4.91258966 C28.5767828,4.54633393 28.1508566,4.36309582 27.6167936,4.36309582 C27.0562481,4.36309582 26.5994257,4.55757959 26.2463262,4.94654715 C25.8932267,5.3355147 25.716677,5.84201044 25.716677,6.46625485 L25.716677,10.4822787 Z" id="Path"></path>
                    <path d="M34.202099,10.4822787 L32.7102537,10.4822787 L32.7102537,3.16929177 L34.1756165,3.16929177 L34.1756165,4.20036449 C34.3940968,3.82043757 34.7052658,3.5218763 35.1135371,3.3049012 C35.5196015,3.0877056 35.9830445,2.97921805 36.4972457,2.97921805 C37.3027539,2.97921805 37.9824704,3.2416168 38.5341883,3.76619379 C39.0969406,4.29981141 39.3772133,5.0550347 39.3772133,6.03208415 L39.3772133,10.4822787 L37.8699199,10.4822787 L37.8699199,6.45258366 C37.8699199,5.79239723 37.7110251,5.2790659 37.3932356,4.91258966 C37.0776529,4.54633393 36.6517267,4.36309582 36.1176637,4.36309582 C35.5571183,4.36309582 35.0980889,4.56000513 34.7383688,4.95338275 C34.3808556,5.34676036 34.202099,5.85568163 34.202099,6.47970555 L34.202099,10.4822787 Z" id="Path"></path>
                    <path d="M40.7763701,6.81883939 C40.7763701,5.76064478 41.138297,4.85614086 41.862151,4.10532763 C42.5948324,3.35473491 43.5217186,2.97921805 44.6450163,2.97921805 C45.7683141,2.97921805 46.6907865,3.35473491 47.4146404,4.10532763 C48.1495287,4.84710023 48.5158694,5.75160415 48.5158694,6.81883939 C48.5158694,7.90437639 48.1495287,8.81792094 47.4146404,9.55969354 C46.6996139,10.3012456 45.7771415,10.6721319 44.6450163,10.6721319 C43.5217186,10.6721319 42.5948324,10.3012456 41.862151,9.55969354 C41.138297,8.80888031 40.7763701,7.89533576 40.7763701,6.81883939 Z M47.008576,6.81883939 C47.008576,6.14961233 46.7768545,5.57520163 46.3156183,5.09582778 C45.872037,4.60741331 45.3159053,4.36309582 44.6450163,4.36309582 C43.9851616,4.36309582 43.4224093,4.60741331 42.9611731,5.09582778 C42.5087644,5.57520163 42.2836635,6.14961233 42.2836635,6.81883939 C42.2836635,7.49732758 42.5087644,8.07614835 42.9611731,8.55552219 C43.4224093,9.03511654 43.9851616,9.27480347 44.6450163,9.27480347 C45.3070778,9.27480347 45.8632095,9.03511654 46.3156183,8.55552219 C46.7768545,8.07614835 47.008576,7.49732758 47.008576,6.81883939 Z" id="Shape"></path>
                    <rect id="Rectangle" x="50.0099216" y="0.197791325" width="1.49361083" height="10.2844874"></rect>
                    <path d="M52.9958192,6.81883939 C52.9958192,5.76064478 53.3577461,4.85614086 54.083807,4.10532763 C54.8164884,3.35473491 55.7433745,2.97921805 56.8666723,2.97921805 C57.98997,2.97921805 58.9124424,3.35473491 59.6362964,4.10532763 C60.3689778,4.84710023 60.7375254,5.75160415 60.7375254,6.81883939 C60.7375254,7.90437639 60.3689778,8.81792094 59.6362964,9.55969354 C58.9212699,10.3012456 57.9987975,10.6721319 56.8666723,10.6721319 C55.7433745,10.6721319 54.8164884,10.3012456 54.083807,9.55969354 C53.3577461,8.80888031 52.9958192,7.89533576 52.9958192,6.81883939 Z M59.230232,6.81883939 C59.230232,6.14961233 58.9985104,5.57520163 58.5372742,5.09582778 C58.093693,4.60741331 57.5353544,4.36309582 56.8666723,4.36309582 C56.2046107,4.36309582 55.6440653,4.60741331 55.1828291,5.09582778 C54.7304204,5.57520163 54.5031126,6.14961233 54.5031126,6.81883939 C54.5031126,7.49732758 54.7304204,8.07614835 55.1828291,8.55552219 C55.6440653,9.03511654 56.2046107,9.27480347 56.8666723,9.27480347 C57.5265269,9.27480347 58.0848655,9.03511654 58.5372742,8.55552219 C58.9985104,8.07614835 59.230232,7.49732758 59.230232,6.81883939 Z" id="Shape"></path>
                    <path d="M67.9606168,4.10532763 L67.9606168,3.16929177 L69.3994972,3.16929177 L69.3994972,9.73609606 C69.3994972,10.9118188 69.0375702,11.8480752 68.3137163,12.5446447 C67.5898623,13.2409936 66.6298731,13.5891681 65.4359554,13.5891681 C64.222176,13.5891681 63.1319813,13.2409936 62.1631646,12.5446447 L62.8141918,11.3911927 C63.6197,11.970234 64.4847937,12.2595341 65.4072661,12.2595341 C66.1774644,12.2595341 66.7887679,12.044764 67.2411766,11.6152239 C67.6935853,11.1854633 67.9208931,10.6269288 67.9208931,9.93962046 L67.9208931,9.4104129 C67.2764865,10.1341042 66.4577371,10.4957294 65.4624379,10.4957294 C64.394312,10.4957294 63.515977,10.1385143 62.827433,9.4238636 C62.138889,8.70943339 61.7968239,7.8139701 61.7968239,6.73747373 C61.7968239,5.66119786 62.1521302,4.77014463 62.8693636,4.06475505 C63.58439,3.35010435 64.4715525,2.99288925 65.5308509,2.99288925 C66.4996676,2.99288925 67.3095896,3.36377554 67.9606168,4.10532763 Z M65.6522289,9.16609541 C66.3319454,9.16609541 66.8924908,8.93544912 67.3360721,8.47415653 C67.7796533,8.02190457 68.0003405,7.44749387 68.0003405,6.75114492 C68.0003405,6.04553485 67.7796533,5.47112414 67.3360721,5.02791281 C66.8836633,4.57566085 66.3231179,4.34964512 65.6522289,4.34964512 C64.9923742,4.34964512 64.4340357,4.58029142 63.9816269,5.04158401 C63.5380457,5.48479534 63.3173585,6.05457547 63.3173585,6.75114492 C63.3173585,7.4565345 63.5380457,8.03557577 63.9816269,8.48782773 C64.4340357,8.94007969 64.9923742,9.16609541 65.6522289,9.16609541 Z" id="Shape"></path>
                    <path d="M72.1161564,2.20591351 C71.8270561,2.20591351 71.5820934,2.10867162 71.3834749,1.91418784 C71.1826496,1.71970406 71.0833404,1.47781211 71.0833404,1.18829147 C71.0833404,0.907811466 71.1826496,0.672755109 71.3834749,0.482681394 C71.5820934,0.292828182 71.8270561,0.197791325 72.1161564,0.197791325 C72.3964291,0.197791325 72.6325644,0.292828182 72.8223553,0.482681394 C73.0121463,0.672755109 73.1070418,0.907811466 73.1070418,1.18829147 C73.1070418,1.47781211 73.0121463,1.71970406 72.8223553,1.91418784 C72.6325644,2.10867162 72.3964291,2.20591351 72.1161564,2.20591351 Z M72.8355966,3.16929177 L72.8355966,10.4822787 L71.3415444,10.4822787 L71.3415444,3.16929177 L72.8355966,3.16929177 Z" id="Shape"></path>
                    <path d="M78.198295,10.64501 C77.0595492,10.64501 76.1304561,10.2877949 75.4154297,9.57314423 C74.6915757,8.8496734 74.3296488,7.93590834 74.3296488,6.83251059 C74.3296488,5.71985169 74.6959895,4.80189708 75.4286709,4.07820575 C76.1723867,3.35473491 77.1125141,2.99288925 78.2534668,2.99288925 C78.9861482,2.99288925 79.6592441,3.16929177 80.2705476,3.5218763 C80.8818511,3.87468134 81.3320529,4.34964512 81.6211532,4.94654715 L80.385305,5.63848603 C80.160204,5.24951848 79.8578626,4.93971155 79.4826944,4.70906526 C79.1075262,4.47841896 78.7014618,4.36309582 78.266708,4.36309582 C77.5693365,4.36309582 76.9911361,4.59837268 76.5298999,5.06870589 C76.0664569,5.54807974 75.8369422,6.13594114 75.8369422,6.83251059 C75.8369422,7.51099878 76.0620431,8.08981954 76.5166587,8.56919339 C76.9602399,9.03952661 77.5251991,9.27480347 78.2137431,9.27480347 C78.6484969,9.27480347 79.0633887,9.15705479 79.4628325,8.92199843 C79.8600695,8.68672157 80.1535834,8.38838081 80.3455813,8.02653514 L81.5814295,8.74559591 C81.2812949,9.31537605 80.8266793,9.7744636 80.2153758,10.1226381 C79.6040723,10.4710331 78.9331833,10.64501 78.198295,10.64501 Z" id="Path"></path>
                    <polygon id="Path" points="88.3962495 4.11899883 84.4040185 9.2068885 88.5198344 9.2068885 88.5198344 10.4822787 82.3670758 10.4822787 82.3670758 9.49177857 86.374755 4.45813267 82.5855561 4.45813267 82.5855561 3.18274246 88.3962495 3.18274246"></polygon>
                    <path d="M91.4395257,10.4822787 L89.9454735,10.4822787 L89.9454735,3.16929177 L91.4108364,3.16929177 L91.4108364,4.20036449 C91.6293167,3.82043757 91.9404856,3.5218763 92.3487569,3.3049012 C92.7570282,3.0877056 93.2182644,2.97921805 93.7346724,2.97921805 C94.5401806,2.97921805 95.2176903,3.2416168 95.7716151,3.76619379 C96.3321605,4.29981141 96.6124332,5.0550347 96.6124332,6.03208415 L96.6124332,10.4822787 L95.1051398,10.4822787 L95.1051398,6.45258366 C95.1051398,5.79239723 94.946245,5.2790659 94.6306624,4.91258966 C94.3128728,4.54633393 93.8869466,4.36309582 93.3528836,4.36309582 C92.7923382,4.36309582 92.3333088,4.56000513 91.9757956,4.95338275 C91.6182824,5.34676036 91.4395257,5.85568163 91.4395257,6.47970555 L91.4395257,10.4822787 Z" id="Path"></path>
                    <path d="M99.2341969,2.20591351 C98.9428898,2.20591351 98.7001339,2.10867162 98.4993086,1.91418784 C98.3006901,1.71970406 98.2013809,1.47781211 98.2013809,1.18829147 C98.2013809,0.907811466 98.3006901,0.672755109 98.4993086,0.482681394 C98.7001339,0.292828182 98.9428898,0.197791325 99.2341969,0.197791325 C99.5144696,0.197791325 99.748398,0.292828182 99.9403959,0.482681394 C100.130187,0.672755109 100.225082,0.907811466 100.225082,1.18829147 C100.225082,1.47781211 100.130187,1.71970406 99.9403959,1.91418784 C99.748398,2.10867162 99.5144696,2.20591351 99.2341969,2.20591351 Z M99.9536371,3.16929177 L99.9536371,10.4822787 L98.4595849,10.4822787 L98.4595849,3.16929177 L99.9536371,3.16929177 Z" id="Shape"></path>
                    <path d="M108.778917,6.68322995 C108.778917,6.91850681 108.761262,7.15819374 108.725952,7.40229072 L103.007948,7.40229072 C103.116084,7.99037262 103.376495,8.45607527 103.78918,8.79983968 C104.201865,9.14360409 104.751376,9.31537605 105.43992,9.31537605 C105.854812,9.31537605 106.291773,9.24305101 106.748595,9.09840095 C107.207625,8.95353038 107.598241,8.76367717 107.924858,8.52840031 L108.549403,9.627388 C107.633551,10.3058762 106.578666,10.64501 105.384749,10.64501 C104.098142,10.64501 103.124912,10.2697137 102.458437,9.51890045 C101.794168,8.76808723 101.460931,7.86358331 101.460931,6.8053887 C101.460931,5.70177044 101.805203,4.79285645 102.49154,4.07820575 C103.188911,3.35473491 104.089315,2.99288925 105.194958,2.99288925 C106.254256,2.99288925 107.114936,3.32298246 107.774791,3.98316889 C108.443473,4.65261645 108.778917,5.55271031 108.778917,6.68322995 Z M105.194958,4.28173015 C104.632205,4.28173015 104.155521,4.45592764 103.762698,4.80410211 C103.367668,5.15227659 103.116084,5.61136414 103.007948,6.18114428 L107.271624,6.18114428 C107.209832,5.61136414 106.984731,5.15227659 106.600735,4.80410211 C106.214532,4.45592764 105.746676,4.28173015 105.194958,4.28173015 Z" id="Shape"></path>
                    <polygon id="Path" points="116.939929 10.4822787 115.86739 10.4822787 112.45998 0.455559507 114.143823 0.455559507 116.438969 7.60581513 118.976872 0.455559507 119.806656 0.455559507 122.39973 7.60581513 124.652946 0.455559507 126.336789 0.455559507 122.942621 10.4822787 121.896563 10.4822787 119.411626 3.29123001"></polygon>
                    <path d="M129.011518,10.6586812 C128.433318,10.6586812 127.894841,10.5274819 127.396088,10.2650831 C126.899542,10.0029049 126.500098,9.62297794 126.20217,9.12552283 L127.166573,8.25718143 C127.382847,8.60998647 127.660912,8.88341038 128.000771,9.07789415 C128.340629,9.27237793 128.687108,9.36961982 129.040207,9.36961982 C129.393307,9.36961982 129.682407,9.28141856 129.907508,9.10501604 C130.134816,8.92883403 130.247366,8.71384346 130.247366,8.46070584 C130.247366,8.09886017 130.03992,7.81838017 129.622821,7.61948632 C129.514685,7.55620192 129.221171,7.43404318 128.740073,7.25301009 C128.252354,7.04507562 127.943392,6.90483562 127.8176,6.83251059 C127.038575,6.42546177 126.650165,5.82392918 126.650165,5.02791281 C126.650165,4.42197016 126.875266,3.91988449 127.327675,3.5218763 C127.799945,3.12386812 128.406835,2.92497428 129.148344,2.92497428 C130.189988,2.92497428 130.991082,3.30027064 131.551627,4.05108386 L130.68212,4.97366904 C130.247366,4.44005141 129.713303,4.1732426 129.079931,4.1732426 C128.782003,4.1732426 128.543661,4.2501982 128.367111,4.4038889 C128.190562,4.55757959 128.102287,4.74765331 128.102287,4.97366904 C128.102287,5.3355147 128.305319,5.60232351 128.71359,5.77431597 L129.459513,6.08632793 C129.940611,6.28522177 130.284883,6.43913297 130.492329,6.54762052 C131.32432,6.98179122 131.741418,7.5967745 131.741418,8.39279087 C131.741418,9.03511654 131.487628,9.57314423 130.982254,10.0073149 C130.474674,10.4414856 129.817026,10.6586812 129.011518,10.6586812 Z" id="Path"></path>
                    <path d="M137.201219,2.99288925 C138.240656,2.99288925 139.10575,3.36377554 139.794294,4.10532763 C140.491665,4.85614086 140.840351,5.76527534 140.840351,6.83251059 C140.840351,7.8907052 140.491665,8.79520912 139.794294,9.54602234 C139.10575,10.2877949 138.236242,10.6586812 137.185771,10.6586812 C136.155162,10.6586812 135.320964,10.260673 134.687592,9.46465668 L134.687592,13.4943517 L133.195747,13.4943517 L133.195747,3.16929177 L134.687592,3.16929177 L134.687592,4.22748638 C135.349654,3.40434812 136.186058,2.99288925 137.201219,2.99288925 Z M139.333057,6.81883939 C139.333057,6.13153107 139.114577,5.55271031 138.679823,5.08215659 C138.24507,4.60278274 137.68011,4.36309582 136.982739,4.36309582 C136.285367,4.36309582 135.720408,4.60278274 135.285654,5.08215659 C134.859728,5.56175094 134.647869,6.1405717 134.647869,6.81883939 C134.647869,7.51540884 134.859728,8.10327023 135.285654,8.58264408 C135.720408,9.0531978 136.285367,9.28825416 136.982739,9.28825416 C137.68011,9.28825416 138.24507,9.0531978 138.679823,8.58264408 C139.114577,8.11231086 139.333057,7.52444947 139.333057,6.81883939 Z" id="Shape"></path>
                    <path d="M141.899649,6.81883939 C141.899649,5.76064478 142.261576,4.85614086 142.98543,4.10532763 C143.718112,3.35473491 144.647205,2.97921805 145.768295,2.97921805 C146.891593,2.97921805 147.814066,3.35473491 148.540126,4.10532763 C149.272808,4.84710023 149.639149,5.75160415 149.639149,6.81883939 C149.639149,7.90437639 149.272808,8.81792094 148.540126,9.55969354 C147.8251,10.3012456 146.900421,10.6721319 145.768295,10.6721319 C144.647205,10.6721319 143.718112,10.3012456 142.98543,9.55969354 C142.261576,8.80888031 141.899649,7.89533576 141.899649,6.81883939 Z M148.131855,6.81883939 C148.131855,6.14961233 147.900134,5.57520163 147.438897,5.09582778 C146.995316,4.60741331 146.439184,4.36309582 145.768295,4.36309582 C145.108441,4.36309582 144.547895,4.60741331 144.084452,5.09582778 C143.632044,5.57520163 143.406943,6.14961233 143.406943,6.81883939 C143.406943,7.49732758 143.632044,8.07614835 144.084452,8.55552219 C144.547895,9.03511654 145.108441,9.27480347 145.768295,9.27480347 C146.430357,9.27480347 146.986489,9.03511654 147.438897,8.55552219 C147.900134,8.07614835 148.131855,7.49732758 148.131855,6.81883939 Z" id="Shape"></path>
                    <path d="M159.715725,2.96576736 C160.591853,2.96576736 161.298052,3.25065743 161.832115,3.82043757 C162.377213,4.37213644 162.648658,5.13662086 162.648658,6.11344982 L162.648658,10.4822787 L161.154606,10.4822787 L161.154606,6.3575468 C161.154606,5.72448226 161.004538,5.23386275 160.706611,4.88546778 C160.406476,4.5372933 160.000412,4.36309582 159.484004,4.36309582 C158.941113,4.36309582 158.499739,4.54853896 158.159881,4.91942526 C157.820022,5.29031156 157.650093,5.7833566 157.650093,6.39833988 L157.650093,10.4822787 L156.156041,10.4822787 L156.156041,6.38466869 C156.156041,5.76064478 156.005974,5.26759973 155.701425,4.90597457 C155.399084,4.5441289 154.988606,4.36309582 154.472198,4.36309582 C153.929307,4.36309582 153.485726,4.5509645 153.141454,4.92626086 C152.799389,5.30155722 152.627253,5.80143786 152.627253,6.42546177 L152.627253,10.4822787 L151.133201,10.4822787 L151.133201,3.16929177 L152.598564,3.16929177 L152.598564,4.22748638 C152.817044,3.83851882 153.119385,3.53091693 153.510002,3.3049012 C153.898411,3.07866497 154.333165,2.96576736 154.812056,2.96576736 C155.310809,2.97480799 155.763218,3.09674623 156.171489,3.33202309 C156.577553,3.56729995 156.877688,3.8927626 157.067479,4.30885204 C157.321269,3.90180323 157.685403,3.57634058 158.159881,3.33202309 C158.634358,3.0877056 159.152973,2.96576736 159.715725,2.96576736 Z" id="Path"></path>
                    <path d="M170.198366,4.1866933 L170.198366,3.16929177 L171.637247,3.16929177 L171.637247,10.4822787 L170.198366,10.4822787 L170.198366,9.47832787 C169.536305,10.2650831 168.704314,10.6586812 167.69798,10.6586812 C166.640889,10.6586812 165.766968,10.2877949 165.078424,9.54602234 C164.38988,8.80424975 164.045608,7.88166457 164.045608,6.77826681 C164.045608,5.68368918 164.38988,4.77918526 165.078424,4.06475505 C165.766968,3.35010435 166.640889,2.99288925 167.69798,2.99288925 C168.704314,2.99288925 169.536305,3.39089743 170.198366,4.1866933 Z M167.90322,9.28825416 C168.580729,9.28825416 169.147895,9.04856724 169.600304,8.56919339 C170.043885,8.09886017 170.266779,7.51540884 170.266779,6.81883939 C170.266779,6.13153107 170.043885,5.55271031 169.600304,5.08215659 C169.147895,4.60278274 168.580729,4.36309582 167.90322,4.36309582 C167.205848,4.36309582 166.640889,4.60278274 166.206135,5.08215659 C165.771381,5.55271031 165.552901,6.13594114 165.552901,6.83251059 C165.552901,7.52908003 165.771381,8.11231086 166.206135,8.58264408 C166.640889,9.0531978 167.205848,9.28825416 167.90322,9.28825416 Z" id="Shape"></path>
                    <path d="M179.295092,4.10532763 L179.295092,3.16929177 L180.736179,3.16929177 L180.736179,9.73609606 C180.736179,10.9118188 180.372045,11.8480752 179.648191,12.5446447 C178.924337,13.2409936 177.964348,13.5891681 176.77043,13.5891681 C175.556651,13.5891681 174.466456,13.2409936 173.49764,12.5446447 L174.148667,11.3911927 C174.954175,11.970234 175.819269,12.2595341 176.743948,12.2595341 C177.511939,12.2595341 178.123243,12.044764 178.575652,11.6152239 C179.02806,11.1854633 179.255368,10.6269288 179.255368,9.93962046 L179.255368,9.4104129 C178.613168,10.1341042 177.792212,10.4957294 176.796913,10.4957294 C175.728787,10.4957294 174.850452,10.1385143 174.161908,9.4238636 C173.475571,8.70943339 173.131299,7.8139701 173.131299,6.73747373 C173.131299,5.66119786 173.488812,4.77014463 174.203838,4.06475505 C174.918865,3.35010435 175.806027,2.99288925 176.865326,2.99288925 C177.834143,2.99288925 178.644065,3.36377554 179.295092,4.10532763 Z M176.986704,9.16609541 C177.66642,9.16609541 178.226966,8.93544912 178.670547,8.47415653 C179.114128,8.02190457 179.337022,7.44749387 179.337022,6.75114492 C179.337022,6.04553485 179.114128,5.47112414 178.670547,5.02791281 C178.218138,4.57566085 177.657593,4.34964512 176.986704,4.34964512 C176.326849,4.34964512 175.770717,4.58029142 175.316102,5.04158401 C174.872521,5.48479534 174.651833,6.05457547 174.651833,6.75114492 C174.651833,7.4565345 174.872521,8.03557577 175.316102,8.48782773 C175.770717,8.94007969 176.326849,9.16609541 176.986704,9.16609541 Z" id="Shape"></path>
                    <path d="M188.380783,4.1866933 L188.380783,3.16929177 L189.819663,3.16929177 L189.819663,10.4822787 L188.380783,10.4822787 L188.380783,9.47832787 C187.718721,10.2650831 186.886731,10.6586812 185.882604,10.6586812 C184.823306,10.6586812 183.949384,10.2877949 183.26084,9.54602234 C182.572296,8.80424975 182.228024,7.88166457 182.228024,6.77826681 C182.228024,5.68368918 182.572296,4.77918526 183.26084,4.06475505 C183.949384,3.35010435 184.823306,2.99288925 185.882604,2.99288925 C186.886731,2.99288925 187.718721,3.39089743 188.380783,4.1866933 Z M186.085636,9.28825416 C186.765353,9.28825416 187.330312,9.04856724 187.782721,8.56919339 C188.226302,8.09886017 188.446989,7.51540884 188.446989,6.81883939 C188.446989,6.13153107 188.226302,5.55271031 187.782721,5.08215659 C187.330312,4.60278274 186.765353,4.36309582 186.085636,4.36309582 C185.388265,4.36309582 184.823306,4.60278274 184.388552,5.08215659 C183.953798,5.55271031 183.735318,6.13594114 183.735318,6.83251059 C183.735318,7.52908003 183.953798,8.11231086 184.388552,8.58264408 C184.823306,9.0531978 185.388265,9.28825416 186.085636,9.28825416 Z" id="Shape"></path>
                    <path d="M193.242521,10.4822787 L191.748469,10.4822787 L191.748469,3.16929177 L193.213832,3.16929177 L193.213832,4.20036449 C193.432312,3.82043757 193.743481,3.5218763 194.151753,3.3049012 C194.557817,3.0877056 195.02126,2.97921805 195.535461,2.97921805 C196.340969,2.97921805 197.020686,3.2416168 197.572404,3.76619379 C198.135156,4.29981141 198.415429,5.0550347 198.415429,6.03208415 L198.415429,10.4822787 L196.908135,10.4822787 L196.908135,6.45258366 C196.908135,5.79239723 196.749241,5.2790659 196.433658,4.91258966 C196.115868,4.54633393 195.689942,4.36309582 195.155879,4.36309582 C194.595334,4.36309582 194.136304,4.56000513 193.778791,4.95338275 C193.421278,5.34676036 193.242521,5.85568163 193.242521,6.47970555 L193.242521,10.4822787 Z" id="Path"></path>
                    <path d="M205.965137,4.1866933 L205.965137,3.16929177 L207.404018,3.16929177 L207.404018,10.4822787 L205.965137,10.4822787 L205.965137,9.47832787 C205.305283,10.2650831 204.471085,10.6586812 203.466958,10.6586812 C202.40766,10.6586812 201.533739,10.2877949 200.845195,9.54602234 C200.156651,8.80424975 199.814586,7.88166457 199.814586,6.77826681 C199.814586,5.68368918 200.156651,4.77918526 200.845195,4.06475505 C201.533739,3.35010435 202.40766,2.99288925 203.466958,2.99288925 C204.471085,2.99288925 205.305283,3.39089743 205.965137,4.1866933 Z M203.669991,9.28825416 C204.349707,9.28825416 204.914666,9.04856724 205.367075,8.56919339 C205.810656,8.09886017 206.03355,7.51540884 206.03355,6.81883939 C206.03355,6.13153107 205.810656,5.55271031 205.367075,5.08215659 C204.914666,4.60278274 204.349707,4.36309582 203.669991,4.36309582 C202.972619,4.36309582 202.40766,4.60278274 201.972906,5.08215659 C201.538152,5.55271031 201.321879,6.13594114 201.321879,6.83251059 C201.321879,7.52908003 201.538152,8.11231086 201.972906,8.58264408 C202.40766,9.0531978 202.972619,9.28825416 203.669991,9.28825416 Z" id="Shape"></path>
                    <polygon id="Path" points="56.2818513 28.1794205 49.8598544 28.1794205 49.8598544 18.1527013 56.26861 18.1527013 56.26861 19.6316159 51.4223196 19.6316159 51.4223196 22.3587988 55.9155105 22.3587988 55.9155105 23.8377135 51.4223196 23.8377135 51.4223196 26.7005058 56.2818513 26.7005058"></polygon>
                    <path d="M63.533632,21.8838351 L63.533632,17.8949331 L65.0409254,17.8949331 L65.0409254,28.1794205 L63.5601144,28.1794205 L63.5601144,27.1617984 C62.9267422,27.9578148 62.1079928,28.355823 61.1038661,28.355823 C60.0445677,28.355823 59.1706464,27.9893468 58.4821024,27.2568353 C57.7847309,26.5060221 57.4360452,25.5924775 57.4360452,24.5159811 C57.4360452,23.4487459 57.7847309,22.544242 58.4821024,21.8024694 C59.1706464,21.0606968 60.0401539,20.690031 61.0906249,20.690031 C62.0572347,20.690031 62.8737773,21.0878187 63.533632,21.8838351 Z M63.6417687,24.5159811 C63.6417687,23.8286728 63.4254952,23.2496316 62.9907415,22.7792983 C62.5559878,22.2999245 61.9910286,22.0602376 61.2936571,22.0602376 C60.5962856,22.0602376 60.0313264,22.2999245 59.5965727,22.7792983 C59.1618189,23.2496316 58.9433386,23.8286728 58.9433386,24.5159811 C58.9433386,25.2215912 59.1618189,25.8094526 59.5965727,26.2797858 C60.0313264,26.7501191 60.5962856,26.9853959 61.2936571,26.9853959 C61.9910286,26.9853959 62.5559878,26.7501191 62.9907415,26.2797858 C63.4254952,25.8094526 63.6417687,25.2215912 63.6417687,24.5159811 Z" id="Shape"></path>
                    <path d="M70.0792137,28.355823 C69.1015695,28.355823 68.3225437,28.0707124 67.7443433,27.5009323 C67.1639361,26.9311521 66.8748359,26.1578476 66.8748359,25.1807981 L66.8748359,20.866213 L68.3688881,20.866213 L68.3688881,25.1673475 C68.3688881,25.7190463 68.5189553,26.1578476 68.8235036,26.4833102 C69.1258451,26.8089934 69.5451507,26.9717247 70.0792137,26.9717247 C70.6221042,26.9717247 71.0436167,26.813624 71.3415444,26.4969814 C71.639472,26.1803389 71.7895393,25.7371276 71.7895393,25.1673475 L71.7895393,20.866213 L73.2968328,20.866213 L73.2968328,25.1807981 C73.2968328,26.1759289 73.0121463,26.9536435 72.4427734,27.5146035 C71.8711936,28.075343 71.0833404,28.355823 70.0792137,28.355823 Z" id="Path"></path>
                    <polygon id="Path" points="81.8241854 28.1794205 79.8975863 28.1794205 77.2625814 24.8553355 76.6247954 25.4385663 76.6247954 28.1794205 75.1307432 28.1794205 75.1307432 17.8949331 76.6247954 17.8949331 76.6247954 23.6884328 79.7055884 20.866213 81.6763249 20.866213 78.3086386 23.9054079"></polygon>
                    <path d="M87.9482546,21.8838351 L87.9482546,20.866213 L89.3893419,20.866213 L89.3893419,28.1794205 L87.9482546,28.1794205 L87.9482546,27.1752491 C87.2883999,27.9622249 86.4564092,28.355823 85.4500757,28.355823 C84.3907772,28.355823 83.516856,27.9849367 82.8305189,27.2431641 C82.1419749,26.5013915 81.7977029,25.5788063 81.7977029,24.4754086 C81.7977029,23.3808309 82.1419749,22.476327 82.8305189,21.7616763 C83.516856,21.0472461 84.3907772,20.690031 85.4500757,20.690031 C86.4564092,20.690031 87.2883999,21.0878187 87.9482546,21.8838351 Z M85.6531079,26.9853959 C86.3328244,26.9853959 86.8999905,26.745709 87.3523992,26.2663351 C87.7959804,25.7960019 88.0166676,25.2125506 88.0166676,24.5159811 C88.0166676,23.8286728 87.7959804,23.2496316 87.3523992,22.7792983 C86.8999905,22.2999245 86.3328244,22.0602376 85.6531079,22.0602376 C84.9579433,22.0602376 84.3907772,22.2999245 83.9560235,22.7792983 C83.5234766,23.2496316 83.3049963,23.8330829 83.3049963,24.5296523 C83.3049963,25.2260013 83.5234766,25.8094526 83.9560235,26.2797858 C84.3907772,26.7501191 84.9579433,26.9853959 85.6531079,26.9853959 Z" id="Shape"></path>
                    <path d="M94.7520403,28.3421518 C93.6110876,28.3421518 92.6842014,27.9849367 91.969175,27.270286 C91.2431142,26.5465947 90.8811872,25.6330501 90.8811872,24.5296523 C90.8811872,23.4169935 91.2497348,22.4990388 91.9824162,21.7753475 C92.7239251,21.0516562 93.6662594,20.690031 94.8072121,20.690031 C95.5398935,20.690031 96.2129894,20.866213 96.822086,21.2190181 C97.4333895,21.5718231 97.8835914,22.0467869 98.1748984,22.6436889 L96.9390502,23.3356278 C96.7117425,22.9466602 96.4116079,22.6368533 96.0342328,22.406207 C95.6590646,22.1755607 95.2552071,22.0602376 94.8204533,22.0602376 C94.1230818,22.0602376 93.5448814,22.2955144 93.0814384,22.7658477 C92.6202022,23.2452215 92.3884806,23.8330829 92.3884806,24.5296523 C92.3884806,25.20792 92.6157884,25.7869613 93.0681971,26.2663351 C93.5117784,26.7366684 94.0789444,26.9717247 94.7652815,26.9717247 C95.2000353,26.9717247 95.617134,26.8541965 96.014371,26.6191402 C96.4138148,26.3838633 96.7073287,26.0853021 96.8971197,25.7236769 L98.1329679,26.4427377 C97.8350402,27.0125178 97.3804246,27.4716054 96.7691211,27.8197798 C96.1578176,28.1679543 95.4847217,28.3421518 94.7520403,28.3421518 Z" id="Path"></path>
                    <path d="M100.549492,19.9030553 C100.260392,19.9030553 100.01543,19.8058134 99.8168111,19.6113296 C99.6181926,19.4168458 99.5188834,19.1749539 99.5188834,18.8854332 C99.5188834,18.6049532 99.6181926,18.3698969 99.8168111,18.1798232 C100.01543,17.9899699 100.260392,17.8949331 100.549492,17.8949331 C100.831972,17.8949331 101.0659,17.9899699 101.255691,18.1798232 C101.447689,18.3698969 101.542585,18.6049532 101.542585,18.8854332 C101.542585,19.1749539 101.447689,19.4168458 101.255691,19.6113296 C101.0659,19.8058134 100.831972,19.9030553 100.549492,19.9030553 Z M98.7442714,31.299981 C98.1285541,31.299981 97.6540767,31.1914935 97.3186322,30.9742979 L97.6165599,29.7531514 C97.9983487,29.8799408 98.3051039,29.9432252 98.5412392,29.9432252 C99.3732298,29.9432252 99.7903286,29.4501801 99.7903286,28.4643105 L99.7903286,20.866213 L101.284381,20.866213 L101.284381,28.4371887 C101.284381,29.3688145 101.05928,30.0788346 100.611285,30.5672491 C100.16329,31.0556636 99.5409521,31.299981 98.7442714,31.299981 Z" id="Shape"></path>
                    <path d="M108.942226,21.8838351 L108.942226,20.866213 L110.381106,20.866213 L110.381106,28.1794205 L108.942226,28.1794205 L108.942226,27.1752491 C108.282371,27.9622249 107.448174,28.355823 106.444047,28.355823 C105.384749,28.355823 104.510827,27.9849367 103.822283,27.2431641 C103.135946,26.5013915 102.791674,25.5788063 102.791674,24.4754086 C102.791674,23.3808309 103.135946,22.476327 103.822283,21.7616763 C104.510827,21.0472461 105.384749,20.690031 106.444047,20.690031 C107.448174,20.690031 108.282371,21.0878187 108.942226,21.8838351 Z M106.647079,26.9853959 C107.326796,26.9853959 107.891755,26.745709 108.344164,26.2663351 C108.787745,25.7960019 109.010639,25.2125506 109.010639,24.5159811 C109.010639,23.8286728 108.787745,23.2496316 108.344164,22.7792983 C107.891755,22.2999245 107.326796,22.0602376 106.647079,22.0602376 C105.949708,22.0602376 105.384749,22.2999245 104.949995,22.7792983 C104.515241,23.2496316 104.298968,23.8330829 104.298968,24.5296523 C104.298968,25.2260013 104.515241,25.8094526 104.949995,26.2797858 C105.384749,26.7501191 105.949708,26.9853959 106.647079,26.9853959 Z" id="Shape"></path>
                    <path d="M120.457683,28.3287011 C119.001148,28.3287011 117.778541,27.8491068 116.792069,26.8903591 C115.794563,25.9225707 115.298017,24.6923837 115.298017,23.2000184 C115.298017,21.6803106 115.80339,20.4320423 116.818551,19.4552134 C117.831505,18.4693438 119.058526,17.9762987 120.497407,17.9762987 C121.395603,17.9762987 122.232008,18.1754131 123.011034,18.5734213 C123.779025,18.9623888 124.381501,19.4823353 124.816255,20.1337016 L123.703991,21.1376524 C122.878621,20.0432953 121.823737,19.4960065 120.539337,19.4960065 C119.524176,19.4960065 118.665703,19.8488115 117.959504,20.5542011 C117.262133,21.2688518 116.913447,22.1506439 116.913447,23.2000184 C116.913447,24.258213 117.257719,25.1265544 117.946263,25.8050426 C118.641427,26.4833102 119.502107,26.8226646 120.526096,26.8226646 C121.85684,26.8226646 122.933793,26.2797858 123.756956,25.1944693 L124.871426,26.1712983 C124.390328,26.8317052 123.76137,27.3562822 122.982344,27.7452498 C122.205525,28.1342173 121.3625,28.3287011 120.457683,28.3287011 Z" id="Path"></path>
                    <path d="M127.654292,28.1794205 L126.16024,28.1794205 L126.16024,17.8949331 L127.614568,17.8949331 L127.614568,21.7890187 C127.830842,21.4452543 128.146424,21.1738149 128.556902,20.9749211 C128.969587,20.7758067 129.428617,20.6763598 129.936197,20.6763598 C130.741705,20.6763598 131.421422,20.9387586 131.97314,21.4633355 C132.524858,21.9879125 132.800717,22.7431358 132.800717,23.7290054 L132.800717,28.1794205 L131.306665,28.1794205 L131.306665,24.1497254 C131.306665,23.4893185 131.14777,22.9762077 130.832187,22.6097314 C130.514398,22.2434757 130.090678,22.0602376 129.556615,22.0602376 C128.993863,22.0602376 128.537041,22.2547214 128.183941,22.6436889 C127.830842,23.0326565 127.654292,23.5391522 127.654292,24.1631761 L127.654292,28.1794205 Z" id="Path"></path>
                    <path d="M134.213115,24.5159811 C134.213115,23.4577865 134.575042,22.5532826 135.298896,21.8024694 C136.031577,21.0516562 136.96067,20.6763598 138.083968,20.6763598 C139.205059,20.6763598 140.129738,21.0516562 140.853592,21.8024694 C141.586273,22.544242 141.952614,23.4487459 141.952614,24.5159811 C141.952614,25.6015182 141.586273,26.5150627 140.853592,27.2568353 C140.138566,27.9983874 139.213886,28.3692737 138.083968,28.3692737 C136.96067,28.3692737 136.031577,27.9983874 135.298896,27.2568353 C134.575042,26.5060221 134.213115,25.5924775 134.213115,24.5159811 Z M140.445321,24.5159811 C140.445321,23.8467541 140.215806,23.2723434 139.75457,22.7929695 C139.310989,22.3045551 138.75265,22.0602376 138.083968,22.0602376 C137.421906,22.0602376 136.861361,22.3045551 136.400125,22.7929695 C135.947716,23.2723434 135.720408,23.8467541 135.720408,24.5159811 C135.720408,25.1944693 135.947716,25.7732901 136.400125,26.252664 C136.861361,26.7320378 137.421906,26.9717247 138.083968,26.9717247 C138.743823,26.9717247 139.299954,26.7320378 139.75457,26.252664 C140.215806,25.7732901 140.445321,25.1944693 140.445321,24.5159811 Z" id="Shape"></path>
                    <path d="M149.109499,21.8838351 L149.109499,17.8949331 L150.616793,17.8949331 L150.616793,28.1794205 L149.135982,28.1794205 L149.135982,27.1617984 C148.50261,27.9578148 147.68386,28.355823 146.677527,28.355823 C145.620435,28.355823 144.746514,27.9893468 144.05797,27.2568353 C143.360598,26.5060221 143.011913,25.5924775 143.011913,24.5159811 C143.011913,23.4487459 143.360598,22.544242 144.05797,21.8024694 C144.746514,21.0606968 145.616021,20.690031 146.664285,20.690031 C147.633102,20.690031 148.447438,21.0878187 149.109499,21.8838351 Z M149.217636,24.5159811 C149.217636,23.8286728 149.001363,23.2496316 148.566609,22.7792983 C148.131855,22.2999245 147.564689,22.0602376 146.869524,22.0602376 C146.172153,22.0602376 145.604987,22.2999245 145.17244,22.7792983 C144.737686,23.2496316 144.519206,23.8286728 144.519206,24.5159811 C144.519206,25.2215912 144.737686,25.8094526 145.17244,26.2797858 C145.604987,26.7501191 146.172153,26.9853959 146.869524,26.9853959 C147.564689,26.9853959 148.131855,26.7501191 148.566609,26.2797858 C149.001363,25.8094526 149.217636,25.2215912 149.217636,24.5159811 Z" id="Shape"></path>
                    <path d="M155.655081,28.355823 C154.677437,28.355823 153.898411,28.0707124 153.318004,27.5009323 C152.739803,26.9311521 152.450703,26.1578476 152.450703,25.1807981 L152.450703,20.866213 L153.942549,20.866213 L153.942549,25.1673475 C153.942549,25.7190463 154.094823,26.1578476 154.399371,26.4833102 C154.701712,26.8089934 155.121018,26.9717247 155.655081,26.9717247 C156.197972,26.9717247 156.619484,26.813624 156.917412,26.4969814 C157.215339,26.1803389 157.365407,25.7371276 157.365407,25.1673475 L157.365407,20.866213 L158.8727,20.866213 L158.8727,25.1807981 C158.8727,26.1759289 158.588014,26.9536435 158.016434,27.5146035 C157.447061,28.075343 156.659208,28.355823 155.655081,28.355823 Z" id="Path"></path>
                </g>
            </g>
        </g>
    </g>
</svg>