<?xml version="1.0" encoding="UTF-8"?>
<svg width="149px" height="134px" viewBox="0 0 149 134" version="1.1" xmlns="http://www.w3.org/2000/svg" xmlns:xlink="http://www.w3.org/1999/xlink">
    <!-- Generator: Sketch 53.2 (72643) - https://sketchapp.com -->
    <title>TWEC2 white</title>
    <desc>Created with Sketch.</desc>
    <defs>
        <linearGradient x1="50%" y1="125.691377%" x2="49.9836682%" y2="-38.8539466%" id="linearGradient-1">
            <stop stop-color="#9DCCF4" offset="0%"></stop>
            <stop stop-color="#E0EFFC" offset="57%"></stop>
            <stop stop-color="#FFFFFF" offset="100%"></stop>
        </linearGradient>
        <linearGradient x1="91.3966885%" y1="269.05206%" x2="91.3475741%" y2="0.000847888757%" id="linearGradient-2">
            <stop stop-color="#9DCCF4" offset="0%"></stop>
            <stop stop-color="#E0EFFC" offset="57%"></stop>
            <stop stop-color="#FFFFFF" offset="100%"></stop>
        </linearGradient>
        <linearGradient x1="91.3013044%" y1="269.05206%" x2="91.3504188%" y2="0.000847888757%" id="linearGradient-3">
            <stop stop-color="#9DCCF4" offset="0%"></stop>
            <stop stop-color="#E0EFFC" offset="57%"></stop>
            <stop stop-color="#FFFFFF" offset="100%"></stop>
        </linearGradient>
        <linearGradient x1="50%" y1="475.8826%" x2="49.8999233%" y2="-0.0149974504%" id="linearGradient-4">
            <stop stop-color="#9DCCF4" offset="0%"></stop>
            <stop stop-color="#E0EFFC" offset="57%"></stop>
            <stop stop-color="#FFFFFF" offset="100%"></stop>
        </linearGradient>
        <linearGradient x1="182.164012%" y1="100%" x2="182.164012%" y2="-58.345769%" id="linearGradient-5">
            <stop stop-color="#FFFFFF" offset="0%"></stop>
            <stop stop-color="#86ACF2" offset="100%"></stop>
        </linearGradient>
    </defs>
    <g id="Page-1" stroke="none" stroke-width="1" fill="none" fill-rule="evenodd">
        <g id="1" transform="translate(-76.000000, -317.000000)">
            <g id="TWEC2-white" transform="translate(75.000000, 316.000000)">
                <g id="Group" transform="translate(15.911574, 74.159226)" fill="#FFFFFF" fill-rule="nonzero">
                    <g transform="translate(0.000000, 0.386765)" id="Path">
                        <polygon points="8.3449176 28.8287094 8.3449176 6.39632398 0.2741736 6.39632398 0.2741736 0.24675624 22.7873016 0.24675624 22.7873016 6.39632398 14.7551736 6.39632398 14.7551736 28.8287094"></polygon>
                    </g>
                    <polygon id="Path" points="39.7397256 29.2154747 33.9859416 29.2154747 24.6408696 0.633521506 31.6689816 0.633521506 36.9979896 19.2369308 43.1379336 0.633521506 47.4243096 0.633521506 53.6414856 19.2369308 58.8932616 0.633521506 65.9213736 0.633521506 56.6149176 29.2154747 50.8611336 29.2154747 45.3004296 11.4242724"></polygon>
                    <polygon id="Path" points="89.0137416 29.2154747 69.1265016 29.2154747 69.1265016 0.633521506 89.0523576 0.633521506 89.0523576 6.58970661 75.5367576 6.58970661 75.5367576 11.8883908 88.0483416 11.8883908 88.0483416 17.8058993 75.5367576 17.8058993 75.5367576 23.2592896 89.0137416 23.2592896"></polygon>
                    <path d="M106.815718,29.6409165 C102.64519,29.6409165 99.1581648,28.2872381 96.3507816,25.5798812 C93.5433984,22.8466111 92.1416376,19.3270471 92.1416376,15.0211894 C92.1416376,10.6894184 93.5704296,7.13117798 96.4280136,4.34646806 C99.3126288,1.53584487 102.799654,0.13072666 106.89295,0.13072666 C109.414574,0.13072666 111.758566,0.65285977 113.921062,1.69712599 C116.083558,2.74139221 117.821278,4.15308543 119.134222,5.93220566 L114.963694,10.1866236 C112.801198,7.58214628 110.22551,6.2802944 107.240494,6.2802944 C104.873333,6.2802944 102.865301,7.10526471 101.216398,8.7555921 C99.5674944,10.4055327 98.7449736,12.4813019 98.7449736,14.9825129 C98.7449736,17.4318973 99.5559096,19.46899 101.177782,21.0934041 C102.799654,22.7178182 104.807686,23.5300253 107.201878,23.5300253 C110.291158,23.5300253 112.92863,22.2150234 115.118158,19.5850196 L119.404534,23.6073783 C118.064558,25.4379383 116.276638,26.9010713 114.03691,27.9971641 C111.797182,29.0928701 109.391405,29.6409165 106.815718,29.6409165 Z" id="Path"></path>
                </g>
                <g id="Group" transform="translate(0.710239, 0.496241)">
                    <g transform="translate(74.284225, 122.392947)" id="Path">
                        <path d="M0.385,0.65 L0.61,0.65"></path>
                    </g>
                    <g transform="translate(0.413250, 111.633214)" fill="#FFFFFF" fill-rule="nonzero">
                        <polygon id="Path" points="2.24277 7.51999375 2.24277 1.41705802 0.14372681 1.41705802 0.14372681 0.326818694 5.47899235 0.326818694 5.47899235 1.41705802 3.37994915 1.41705802 3.37994915 7.51999375"></polygon>
                        <path d="M10.4541511,4.79455363 C10.4541511,4.96334141 10.4415158,5.13529297 10.4162452,5.31040831 L6.32397963,5.31040831 C6.40295041,5.73229866 6.58932144,6.06639405 6.88309272,6.31301087 C7.17844342,6.55962768 7.57171787,6.682857 8.06449551,6.682857 C8.36142562,6.682857 8.67414989,6.63097097 9.00266831,6.52719892 C9.32960732,6.42326867 9.60916386,6.28706785 9.84291735,6.11828008 L10.2898919,6.90669458 C9.63601392,7.39344246 8.88105332,7.63673731 8.02501012,7.63673731 C7.1057903,7.63673731 6.40768865,7.36749945 5.93070518,6.82886554 C5.45530111,6.29023163 5.21680937,5.64133992 5.21680937,4.8821904 C5.21680937,4.09045392 5.46319819,3.43839842 5.95597582,2.92570753 C6.4534917,2.40668907 7.09947264,2.14710074 7.88918039,2.14710074 C8.64729982,2.14710074 9.26327187,2.38390984 9.7355171,2.85752802 C10.2156594,3.33779015 10.4541511,3.98351808 10.4541511,4.79455363 Z M7.88918039,3.07171607 C7.48800885,3.07171607 7.14527569,3.19668547 6.86413973,3.44646607 C6.58142436,3.69624666 6.40295041,4.02559638 6.32397963,4.43435704 L9.37698978,4.43435704 C9.33118673,4.02559638 9.17008635,3.69624666 8.89526806,3.44646607 C8.62044976,3.19668547 8.28403426,3.07171607 7.88918039,3.07171607 Z" id="Shape"></path>
                        <path d="M13.9636124,7.63673731 C13.1470546,7.63673731 12.4821206,7.38047096 11.97039,6.86778006 C11.4523417,6.3487616 11.1933176,5.69322595 11.1933176,4.90164766 C11.1933176,4.10342542 11.4555006,3.44488417 11.9814459,2.92570753 C12.5121295,2.40668907 13.18654,2.14710074 14.0015183,2.14710074 C14.5274637,2.14710074 15.007606,2.27365203 15.4451041,2.52659641 C15.8826022,2.77969898 16.204803,3.12043832 16.4117064,3.54865623 L15.5272337,4.04505364 C15.3661333,3.76600806 15.1497534,3.54375237 14.8812528,3.37828656 C14.6127521,3.21282075 14.3221397,3.13008785 14.0109948,3.13008785 C13.513479,3.13008785 13.0980927,3.29887563 12.7679948,3.63629299 C12.437897,3.98019611 12.2720584,4.40192827 12.2720584,4.90164766 C12.2720584,5.38839554 12.4347382,5.80364194 12.7585184,6.14754506 C13.0759809,6.48496242 13.4803112,6.6537502 13.9730889,6.6537502 C14.2842337,6.6537502 14.5827432,6.56927722 14.867038,6.40064763 C15.1513328,6.23185985 15.3629745,6.01782999 15.4988042,5.75824167 L16.3832769,6.27409635 C16.1700558,6.682857 15.8431168,7.01220672 15.4071981,7.26198732 C14.9697,7.5119261 14.4879783,7.63673731 13.9636124,7.63673731 Z" id="Path"></path>
                        <path d="M18.4049287,7.51999375 L17.3356645,7.51999375 L17.3356645,0.141895629 L18.3749198,0.141895629 L18.3749198,2.93551525 C18.531282,2.68889843 18.755559,2.49416764 19.0509097,2.35148107 C19.3462604,2.20863631 19.6747788,2.13729302 20.0364649,2.13729302 C20.614531,2.13729302 21.0994116,2.32553806 21.4942654,2.70186994 C21.8906987,3.07820183 22.0881257,3.61999952 22.0881257,4.3274212 L22.0881257,7.51999375 L21.0188614,7.51999375 L21.0188614,4.62908783 C21.0188614,4.15546964 20.9051435,3.7872054 20.6777076,3.52429511 C20.4518512,3.261543 20.147024,3.13008785 19.7648055,3.13008785 C19.3636339,3.13008785 19.0366949,3.26961064 18.7839885,3.54865623 C18.531282,3.82770181 18.4049287,4.19106219 18.4049287,4.63889555 L18.4049287,7.51999375 Z" id="Path"></path>
                        <path d="M24.4777813,7.51999375 L23.4100964,7.51999375 L23.4100964,2.27365203 L24.4588283,2.27365203 L24.4588283,3.01334429 C24.6151905,2.74078446 24.837888,2.52659641 25.1300799,2.37093833 C25.4206924,2.21512206 25.7523696,2.13729302 26.1203734,2.13729302 C26.6968601,2.13729302 27.18332,2.32553806 27.5781739,2.70186994 C27.9809249,3.08468758 28.1815106,3.62648527 28.1815106,4.3274212 L28.1815106,7.51999375 L27.1027699,7.51999375 L27.1027699,4.62908783 C27.1027699,4.15546964 26.9890519,3.7872054 26.7616161,3.52429511 C26.5357597,3.261543 26.2309325,3.13008785 25.848714,3.13008785 C25.4475424,3.13008785 25.119024,3.27135072 24.8615793,3.55356009 C24.605714,3.83576946 24.4777813,4.20086991 24.4777813,4.64854509 L24.4777813,7.51999375 Z" id="Path"></path>
                        <path d="M29.1828601,4.89183993 C29.1828601,4.13269041 29.4418842,3.48379869 29.9599325,2.94516479 C30.4842984,2.40668907 31.1476529,2.13729302 31.9515754,2.13729302 C32.7554979,2.13729302 33.4156936,2.40668907 33.9337419,2.94516479 C34.4596872,3.47731294 34.7218702,4.12620466 34.7218702,4.89183993 C34.7218702,5.6706049 34.4596872,6.32598237 33.9337419,6.85813053 C33.4220112,7.39012049 32.7618156,7.65619457 31.9515754,7.65619457 C31.1476529,7.65619457 30.4842984,7.39012049 29.9599325,6.85813053 C29.4418842,6.31949662 29.1828601,5.66411915 29.1828601,4.89183993 Z M33.6431294,4.89183993 C33.6431294,4.41173599 33.4772908,3.99965337 33.147193,3.65575025 C32.8297304,3.30536138 32.4317177,3.13008785 31.9515754,3.13008785 C31.4793302,3.13008785 31.0765792,3.30536138 30.7464814,3.65575025 C30.4227012,3.99965337 30.2616008,4.41173599 30.2616008,4.89183993 C30.2616008,5.37858781 30.4227012,5.79383422 30.7464814,6.13773734 C31.0765792,6.48179864 31.4793302,6.6537502 31.9515754,6.6537502 C32.4254001,6.6537502 32.8234128,6.48179864 33.147193,6.13773734 C33.4772908,5.79383422 33.6431294,5.37858781 33.6431294,4.89183993 Z" id="Shape"></path>
                        <rect id="Rectangle" x="35.7911345" y="0.141895629" width="1.06894841" height="7.37809812"></rect>
                        <path d="M37.9280836,4.89183993 C37.9280836,4.13269041 38.1871078,3.48379869 38.7067355,2.94516479 C39.2311014,2.40668907 39.8944559,2.13729302 40.6983784,2.13729302 C41.5023009,2.13729302 42.1624966,2.40668907 42.6805449,2.94516479 C43.2049108,3.47731294 43.4686732,4.12620466 43.4686732,4.89183993 C43.4686732,5.6706049 43.2049108,6.32598237 42.6805449,6.85813053 C42.1688142,7.39012049 41.5086186,7.65619457 40.6983784,7.65619457 C39.8944559,7.65619457 39.2311014,7.39012049 38.7067355,6.85813053 C38.1871078,6.31949662 37.9280836,5.66411915 37.9280836,4.89183993 Z M42.3899324,4.89183993 C42.3899324,4.41173599 42.2240938,3.99965337 41.893996,3.65575025 C41.5765334,3.30536138 41.1769413,3.13008785 40.6983784,3.13008785 C40.2245538,3.13008785 39.8233822,3.30536138 39.4932844,3.65575025 C39.1695042,3.99965337 39.0068244,4.41173599 39.0068244,4.89183993 C39.0068244,5.37858781 39.1695042,5.79383422 39.4932844,6.13773734 C39.8233822,6.48179864 40.2245538,6.6537502 40.6983784,6.6537502 C41.1706237,6.6537502 41.5702158,6.48179864 41.893996,6.13773734 C42.2240938,5.79383422 42.3899324,5.37858781 42.3899324,4.89183993 Z" id="Shape"></path>
                        <path d="M48.6381001,2.94516479 L48.6381001,2.27365203 L49.667879,2.27365203 L49.667879,6.98468181 C49.667879,7.82814613 49.4088549,8.49981707 48.8908066,8.99953646 C48.3727583,9.49909766 47.6857126,9.74887826 46.8312488,9.74887826 C45.9625703,9.74887826 45.182339,9.49909766 44.4889756,8.99953646 L44.9549032,8.17204925 C45.5313898,8.58745384 46.1505207,8.79499795 46.8107164,8.79499795 C47.3619324,8.79499795 47.7994305,8.64092176 48.1232107,8.33276938 C48.4469908,8.02445881 48.6096706,7.6237658 48.6096706,7.13069036 L48.6096706,6.7510365 C48.1484813,7.27021315 47.5625182,7.52964328 46.8502018,7.52964328 C46.0857647,7.52964328 45.4571573,7.27337693 44.9643797,6.76068604 C44.471602,6.24815333 44.2267926,5.60574737 44.2267926,4.83346815 C44.2267926,4.06134712 44.4810785,3.42210494 44.9943886,2.91605799 C45.5061192,2.4033671 46.1410442,2.14710074 46.8991636,2.14710074 C47.592527,2.14710074 48.1721725,2.41317482 48.6381001,2.94516479 Z M46.9860315,6.57576297 C47.4724915,6.57576297 47.873663,6.41029717 48.1911255,6.07936556 C48.508588,5.7549197 48.6665296,5.34283707 48.6665296,4.84327588 C48.6665296,4.33707074 48.508588,3.92498811 48.1911255,3.60702801 C47.8673453,3.28258215 47.4661738,3.12043832 46.9860315,3.12043832 C46.5137863,3.12043832 46.1141941,3.28590412 45.790414,3.61683573 C45.4729515,3.93479584 45.3150099,4.34355649 45.3150099,4.84327588 C45.3150099,5.34932283 45.4729515,5.76472742 45.790414,6.08917328 C46.1141941,6.41361914 46.5137863,6.57576297 46.9860315,6.57576297 Z" id="Shape"></path>
                        <path d="M51.6121395,1.58252382 C51.405236,1.58252382 51.2299209,1.51276243 51.0877735,1.37323963 C50.9440467,1.23371684 50.872973,1.06018339 50.872973,0.852481095 C50.872973,0.651264552 50.9440467,0.482634964 51.0877735,0.346275954 C51.2299209,0.210075134 51.405236,0.141895629 51.6121395,0.141895629 C51.8127252,0.141895629 51.9817227,0.210075134 52.1175524,0.346275954 C52.2533822,0.482634964 52.321297,0.651264552 52.321297,0.852481095 C52.321297,1.06018339 52.2533822,1.23371684 52.1175524,1.37323963 C51.9817227,1.51276243 51.8127252,1.58252382 51.6121395,1.58252382 Z M52.1270289,2.27365203 L52.1270289,7.51999375 L51.0577646,7.51999375 L51.0577646,2.27365203 L52.1270289,2.27365203 Z" id="Shape"></path>
                        <path d="M55.9650086,7.63673731 C55.1500302,7.63673731 54.4850963,7.38047096 53.9733656,6.86778006 C53.4553174,6.3487616 53.1962932,5.69322595 53.1962932,4.90164766 C53.1962932,4.10342542 53.4584762,3.44488417 53.9828421,2.92570753 C54.5151052,2.40668907 55.1879362,2.14710074 56.004494,2.14710074 C56.5288599,2.14710074 57.0105816,2.27365203 57.4480797,2.52659641 C57.8855778,2.77969898 58.2077786,3.12043832 58.414682,3.54865623 L57.5302093,4.04505364 C57.369109,3.76600806 57.152729,3.54375237 56.8842284,3.37828656 C56.6157278,3.21282075 56.3251153,3.13008785 56.0139705,3.13008785 C55.5148752,3.13008785 55.1010683,3.29887563 54.7709705,3.63629299 C54.4392932,3.98019611 54.275034,4.40192827 54.275034,4.90164766 C54.275034,5.38839554 54.4361344,5.80364194 54.761494,6.14754506 C55.0789565,6.48496242 55.4832869,6.6537502 55.9760645,6.6537502 C56.2872093,6.6537502 56.5841395,6.56927722 56.8700137,6.40064763 C57.1543084,6.23185985 57.3643707,6.01782999 57.5017799,5.75824167 L58.3862525,6.27409635 C58.171452,6.682857 57.8460924,7.01220672 57.4085943,7.26198732 C56.9710962,7.5119261 56.4909539,7.63673731 55.9650086,7.63673731 Z" id="Path"></path>
                        <polygon id="Path" points="63.2634876 2.95497251 60.4063249 6.60502796 63.3519348 6.60502796 63.3519348 7.51999375 58.9485244 7.51999375 58.9485244 6.80940828 61.816743 3.19826736 59.1048866 3.19826736 59.1048866 2.28330156 63.2634876 2.28330156"></polygon>
                        <path d="M65.4415015,7.51999375 L64.3722372,7.51999375 L64.3722372,2.27365203 L65.4209691,2.27365203 L65.4209691,3.01334429 C65.5773313,2.74078446 65.8000289,2.52659641 66.0922207,2.37093833 C66.3844126,2.21512206 66.7145104,2.13729302 67.0840936,2.13729302 C67.6605803,2.13729302 68.1454609,2.32553806 68.5418941,2.70186994 C68.9430657,3.08468758 69.1436515,3.62648527 69.1436515,4.3274212 L69.1436515,7.51999375 L68.0649107,7.51999375 L68.0649107,4.62908783 C68.0649107,4.15546964 67.9511928,3.7872054 67.7253363,3.52429511 C67.4979005,3.261543 67.1930733,3.13008785 66.8108548,3.13008785 C66.4096832,3.13008785 66.0811648,3.27135072 65.8252995,3.55356009 C65.5694342,3.83576946 65.4415015,4.20086991 65.4415015,4.64854509 L65.4415015,7.51999375 Z" id="Path"></path>
                        <path d="M71.0199971,1.58252382 C70.8115142,1.58252382 70.6377785,1.51276243 70.4940517,1.37323963 C70.3519043,1.23371684 70.2808306,1.06018339 70.2808306,0.852481095 C70.2808306,0.651264552 70.3519043,0.482634964 70.4940517,0.346275954 C70.6377785,0.210075134 70.8115142,0.141895629 71.0199971,0.141895629 C71.2205828,0.141895629 71.3880009,0.210075134 71.52541,0.346275954 C71.6612397,0.482634964 71.7291546,0.651264552 71.7291546,0.852481095 C71.7291546,1.06018339 71.6612397,1.23371684 71.52541,1.37323963 C71.3880009,1.51276243 71.2205828,1.58252382 71.0199971,1.58252382 Z M71.5348865,2.27365203 L71.5348865,7.51999375 L70.4656222,7.51999375 L70.4656222,2.27365203 L71.5348865,2.27365203 Z" id="Shape"></path>
                        <path d="M77.8509691,4.79455363 C77.8509691,4.96334141 77.8383337,5.13529297 77.8130631,5.31040831 L73.7207975,5.31040831 C73.7981889,5.73229866 73.9845599,6.06639405 74.2799106,6.31301087 C74.5752613,6.55962768 74.9685358,6.682857 75.4613134,6.682857 C75.7582435,6.682857 76.0709678,6.63097097 76.3979068,6.52719892 C76.7264252,6.42326867 77.0059818,6.28706785 77.2397353,6.11828008 L77.6867099,6.90669458 C77.0312524,7.39344246 76.2762918,7.63673731 75.421828,7.63673731 C74.5010288,7.63673731 73.8045066,7.36749945 73.3275231,6.82886554 C72.852119,6.29023163 72.6136273,5.64133992 72.6136273,4.8821904 C72.6136273,4.09045392 72.8600161,3.43839842 73.3512143,2.92570753 C73.8503096,2.40668907 74.4947111,2.14710074 75.2859983,2.14710074 C76.0441177,2.14710074 76.6600898,2.38390984 77.132335,2.85752802 C77.6108979,3.33779015 77.8509691,3.98351808 77.8509691,4.79455363 Z M75.2859983,3.07171607 C74.8832474,3.07171607 74.5420936,3.19668547 74.2609576,3.44646607 C73.9782423,3.69624666 73.7981889,4.02559638 73.7207975,4.43435704 L76.7722283,4.43435704 C76.7280046,4.02559638 76.5669043,3.69624666 76.292086,3.44646607 C76.0156883,3.19668547 75.6808522,3.07171607 75.2859983,3.07171607 Z" id="Shape"></path>
                        <polygon id="Path" points="83.6916476 7.51999375 82.9240516 7.51999375 80.4854341 0.326818694 81.6905281 0.326818694 83.3331202 5.45641685 85.1494481 0.326818694 85.7433083 0.326818694 87.5991215 5.45641685 89.2117047 0.326818694 90.4167987 0.326818694 87.9876577 7.51999375 87.2390148 7.51999375 85.4605929 2.3611306"></polygon>
                        <path d="M92.3310503,7.64654503 C91.9172434,7.64654503 91.5318661,7.55242252 91.1749182,7.36417748 C90.8195497,7.17609063 90.5336755,6.9035308 90.3204544,6.54665618 L91.010659,5.92370747 C91.1654417,6.17681004 91.364448,6.37296454 91.607678,6.51248733 C91.850908,6.65201012 92.0988762,6.72177152 92.3515827,6.72177152 C92.6042892,6.72177152 92.8111926,6.65849587 92.972293,6.53194459 C93.1349728,6.40555149 93.215523,6.25131711 93.215523,6.06971602 C93.215523,5.8101277 93.0670579,5.60891115 92.7685484,5.46622458 C92.691157,5.4208243 92.4810948,5.33318754 92.1367822,5.20331428 C91.7877314,5.05414196 91.5666132,4.95353368 91.4765865,4.90164766 C90.9190529,4.60963057 90.6410757,4.17809068 90.6410757,3.60702801 C90.6410757,3.17232434 90.8021761,2.81212775 91.1259563,2.52659641 C91.4639512,2.24106507 91.8982905,2.0983785 92.4289741,2.0983785 C93.1744582,2.0983785 93.747786,2.36761636 94.1489575,2.90625027 L93.5266678,3.56811349 C93.215523,3.18529585 92.8333044,2.99388703 92.3800122,2.99388703 C92.1667911,2.99388703 91.9962142,3.04909503 91.869861,3.15935284 C91.7435077,3.26961064 91.6803311,3.40596965 91.6803311,3.56811349 C91.6803311,3.82770181 91.8256373,4.01911063 92.1178292,4.14249813 L92.6516716,4.36633572 C92.9959842,4.50902229 93.242373,4.61943829 93.3908381,4.69726733 C93.9862777,5.00874168 94.2847873,5.4499311 94.2847873,6.02099377 C94.2847873,6.48179864 94.1031545,6.86778006 93.7414683,7.17925441 C93.3782028,7.49072876 92.907537,7.64654503 92.3310503,7.64654503 Z" id="Path"></path>
                        <path d="M98.1922612,2.14710074 C98.9361659,2.14710074 99.5552968,2.41317482 100.048074,2.94516479 C100.54717,3.48379869 100.796717,4.13601238 100.796717,4.90164766 C100.796717,5.66079718 100.54717,6.30968889 100.048074,6.8483228 C99.5552968,7.38047096 98.9330071,7.64654503 98.1812053,7.64654503 C97.4436183,7.64654503 96.8465992,7.3610137 96.393307,6.78995102 L96.393307,9.68085694 L95.3256221,9.68085694 L95.3256221,2.27365203 L96.393307,2.27365203 L96.393307,3.03280155 C96.8671316,2.44228162 97.4657301,2.14710074 98.1922612,2.14710074 Z M99.7179766,4.89183993 C99.7179766,4.39876449 99.5616144,3.98351808 99.2504696,3.64594253 C98.9393247,3.30203941 98.5349944,3.13008785 98.0358991,3.13008785 C97.5368038,3.13008785 97.1324734,3.30203941 96.8213285,3.64594253 C96.5165014,3.99000384 96.3648775,4.40525024 96.3648775,4.89183993 C96.3648775,5.39155932 96.5165014,5.81329148 96.8213285,6.1571946 C97.1324734,6.49477015 97.5368038,6.66339974 98.0358991,6.66339974 C98.5349944,6.66339974 98.9393247,6.49477015 99.2504696,6.1571946 C99.5616144,5.81977723 99.7179766,5.39804507 99.7179766,4.89183993 Z" id="Shape"></path>
                        <path d="M101.554837,4.89183993 C101.554837,4.13269041 101.813861,3.48379869 102.331909,2.94516479 C102.856275,2.40668907 103.521209,2.13729302 104.323552,2.13729302 C105.127475,2.13729302 105.78767,2.40668907 106.307298,2.94516479 C106.831664,3.47731294 107.093847,4.12620466 107.093847,4.89183993 C107.093847,5.6706049 106.831664,6.32598237 106.307298,6.85813053 C105.795567,7.39012049 105.133792,7.65619457 104.323552,7.65619457 C103.521209,7.65619457 102.856275,7.39012049 102.331909,6.85813053 C101.813861,6.31949662 101.554837,5.66411915 101.554837,4.89183993 Z M106.015106,4.89183993 C106.015106,4.41173599 105.849268,3.99965337 105.51917,3.65575025 C105.201707,3.30536138 104.803694,3.13008785 104.323552,3.13008785 C103.851307,3.13008785 103.450135,3.30536138 103.118458,3.65575025 C102.794678,3.99965337 102.633578,4.41173599 102.633578,4.89183993 C102.633578,5.37858781 102.794678,5.79383422 103.118458,6.13773734 C103.450135,6.48179864 103.851307,6.6537502 104.323552,6.6537502 C104.797377,6.6537502 105.195389,6.48179864 105.51917,6.13773734 C105.849268,5.79383422 106.015106,5.37858781 106.015106,4.89183993 Z" id="Shape"></path>
                        <path d="M114.305458,2.12764348 C114.932486,2.12764348 115.437899,2.33202381 115.820118,2.74078446 C116.210233,3.13657361 116.404501,3.68501524 116.404501,4.38579298 L116.404501,7.51999375 L115.335237,7.51999375 L115.335237,4.56090832 C115.335237,4.1067474 115.227837,3.75477663 115.014616,3.50483785 C114.799815,3.25505725 114.509203,3.13008785 114.139619,3.13008785 C113.751083,3.13008785 113.4352,3.26312489 113.19197,3.52919897 C112.94874,3.79527305 112.827125,4.14898389 112.827125,4.59017331 L112.827125,7.51999375 L111.757861,7.51999375 L111.757861,4.58036558 C111.757861,4.13269041 111.650461,3.77897957 111.432501,3.51954943 C111.216121,3.25996111 110.92235,3.13008785 110.552767,3.13008785 C110.164231,3.13008785 109.846768,3.26486497 109.600379,3.53410283 C109.35557,3.80334069 109.232375,4.16195539 109.232375,4.60963057 L109.232375,7.51999375 L108.163111,7.51999375 L108.163111,2.27365203 L109.211843,2.27365203 L109.211843,3.03280155 C109.368205,2.75375597 109.584585,2.53308216 109.864142,2.37093833 C110.142119,2.20863631 110.453264,2.12764348 110.795997,2.12764348 C111.152945,2.13412924 111.476725,2.22160781 111.768917,2.39039559 C112.059529,2.55918337 112.27433,2.79267049 112.410159,3.09117333 C112.591792,2.79915624 112.852396,2.56566912 113.19197,2.39039559 C113.531544,2.21512206 113.902707,2.12764348 114.305458,2.12764348 Z" id="Path"></path>
                        <path d="M121.807682,3.00353657 L121.807682,2.27365203 L122.837461,2.27365203 L122.837461,7.51999375 L121.807682,7.51999375 L121.807682,6.79975875 C121.333857,7.36417748 120.738417,7.64654503 120.018204,7.64654503 C119.261664,7.64654503 118.636215,7.38047096 118.143438,6.8483228 C117.65066,6.31617465 117.404271,5.65431143 117.404271,4.86273314 C117.404271,4.07748241 117.65066,3.4285907 118.143438,2.91605799 C118.636215,2.4033671 119.261664,2.14710074 120.018204,2.14710074 C120.738417,2.14710074 121.333857,2.43263208 121.807682,3.00353657 Z M120.16509,6.66339974 C120.64997,6.66339974 121.05588,6.49144818 121.37966,6.14754506 C121.697123,5.8101277 121.856644,5.39155932 121.856644,4.89183993 C121.856644,4.39876449 121.697123,3.98351808 121.37966,3.64594253 C121.05588,3.30203941 120.64997,3.13008785 120.16509,3.13008785 C119.665994,3.13008785 119.261664,3.30203941 118.950519,3.64594253 C118.639374,3.98351808 118.483012,4.40192827 118.483012,4.90164766 C118.483012,5.40136704 118.639374,5.81977723 118.950519,6.1571946 C119.261664,6.49477015 119.665994,6.66339974 120.16509,6.66339974 Z" id="Shape"></path>
                        <path d="M128.318032,2.94516479 L128.318032,2.27365203 L129.349391,2.27365203 L129.349391,6.98468181 C129.349391,7.82814613 129.088787,8.49981707 128.570739,8.99953646 C128.052691,9.49909766 127.365645,9.74887826 126.511181,9.74887826 C125.642502,9.74887826 124.862271,9.49909766 124.168908,8.99953646 L124.634835,8.17204925 C125.211322,8.58745384 125.830453,8.79499795 126.492228,8.79499795 C127.041865,8.79499795 127.479363,8.64092176 127.803143,8.33276938 C128.126923,8.02445881 128.289603,7.6237658 128.289603,7.13069036 L128.289603,6.7510365 C127.829993,7.27021315 127.24245,7.52964328 126.530134,7.52964328 C125.765697,7.52964328 125.13709,7.27337693 124.644312,6.76068604 C124.153114,6.24815333 123.906725,5.60574737 123.906725,4.83346815 C123.906725,4.06134712 124.16259,3.42210494 124.674321,2.91605799 C125.186051,2.4033671 125.820976,2.14710074 126.579096,2.14710074 C127.272459,2.14710074 127.852105,2.41317482 128.318032,2.94516479 Z M126.665964,6.57576297 C127.152424,6.57576297 127.553595,6.41029717 127.871058,6.07936556 C128.18852,5.7549197 128.348041,5.34283707 128.348041,4.84327588 C128.348041,4.33707074 128.18852,3.92498811 127.871058,3.60702801 C127.547278,3.28258215 127.146106,3.12043832 126.665964,3.12043832 C126.193718,3.12043832 125.795706,3.28590412 125.470346,3.61683573 C125.152884,3.93479584 124.994942,4.34355649 124.994942,4.84327588 C124.994942,5.34932283 125.152884,5.76472742 125.470346,6.08917328 C125.795706,6.41361914 126.193718,6.57576297 126.665964,6.57576297 Z" id="Shape"></path>
                        <path d="M134.820486,3.00353657 L134.820486,2.27365203 L135.850265,2.27365203 L135.850265,7.51999375 L134.820486,7.51999375 L134.820486,6.79975875 C134.346661,7.36417748 133.751222,7.64654503 133.032588,7.64654503 C132.274468,7.64654503 131.64902,7.38047096 131.156242,6.8483228 C130.663464,6.31617465 130.417076,5.65431143 130.417076,4.86273314 C130.417076,4.07748241 130.663464,3.4285907 131.156242,2.91605799 C131.64902,2.4033671 132.274468,2.14710074 133.032588,2.14710074 C133.751222,2.14710074 134.346661,2.43263208 134.820486,3.00353657 Z M133.177894,6.66339974 C133.664354,6.66339974 134.068684,6.49144818 134.392464,6.14754506 C134.709927,5.8101277 134.867868,5.39155932 134.867868,4.89183993 C134.867868,4.39876449 134.709927,3.98351808 134.392464,3.64594253 C134.068684,3.30203941 133.664354,3.13008785 133.177894,3.13008785 C132.678798,3.13008785 132.274468,3.30203941 131.963323,3.64594253 C131.652178,3.98351808 131.495816,4.40192827 131.495816,4.90164766 C131.495816,5.40136704 131.652178,5.81977723 131.963323,6.1571946 C132.274468,6.49477015 132.678798,6.66339974 133.177894,6.66339974 Z" id="Shape"></path>
                        <path d="M138.299938,7.51999375 L137.230674,7.51999375 L137.230674,2.27365203 L138.279406,2.27365203 L138.279406,3.01334429 C138.435768,2.74078446 138.658466,2.52659641 138.950657,2.37093833 C139.24127,2.21512206 139.572947,2.13729302 139.940951,2.13729302 C140.517438,2.13729302 141.003898,2.32553806 141.398751,2.70186994 C141.801502,3.08468758 142.002088,3.62648527 142.002088,4.3274212 L142.002088,7.51999375 L140.923347,7.51999375 L140.923347,4.62908783 C140.923347,4.15546964 140.809629,3.7872054 140.583773,3.52429511 C140.356337,3.261543 140.05151,3.13008785 139.669291,3.13008785 C139.26812,3.13008785 138.939602,3.27135072 138.683736,3.55356009 C138.427871,3.83576946 138.299938,4.20086991 138.299938,4.64854509 L138.299938,7.51999375 Z" id="Path"></path>
                        <path d="M147.405269,3.00353657 L147.405269,2.27365203 L148.435047,2.27365203 L148.435047,7.51999375 L147.405269,7.51999375 L147.405269,6.79975875 C146.933023,7.36417748 146.336004,7.64654503 145.61737,7.64654503 C144.859251,7.64654503 144.233802,7.38047096 143.741025,6.8483228 C143.248247,6.31617465 143.003438,5.65431143 143.003438,4.86273314 C143.003438,4.07748241 143.248247,3.4285907 143.741025,2.91605799 C144.233802,2.4033671 144.859251,2.14710074 145.61737,2.14710074 C146.336004,2.14710074 146.933023,2.43263208 147.405269,3.00353657 Z M145.762676,6.66339974 C146.249136,6.66339974 146.653467,6.49144818 146.977247,6.14754506 C147.294709,5.8101277 147.45423,5.39155932 147.45423,4.89183993 C147.45423,4.39876449 147.294709,3.98351808 146.977247,3.64594253 C146.653467,3.30203941 146.249136,3.13008785 145.762676,3.13008785 C145.263581,3.13008785 144.859251,3.30203941 144.548106,3.64594253 C144.236961,3.98351808 144.082178,4.40192827 144.082178,4.90164766 C144.082178,5.40136704 144.236961,5.81977723 144.548106,6.1571946 C144.859251,6.49477015 145.263581,6.66339974 145.762676,6.66339974 Z" id="Shape"></path>
                        <polygon id="Path" points="40.2798333 20.2159351 35.6837342 20.2159351 35.6837342 13.02276 40.2703568 13.02276 40.2703568 14.0837343 36.8019604 14.0837343 36.8019604 16.0402172 40.0176503 16.0402172 40.0176503 17.1011916 36.8019604 17.1011916 36.8019604 19.1549607 40.2798333 19.1549607"></polygon>
                        <path d="M45.4697926,15.6994779 L45.4697926,12.8378369 L46.5485334,12.8378369 L46.5485334,20.2159351 L45.4887456,20.2159351 L45.4887456,19.4858923 C45.0354534,20.056955 44.4494902,20.3424864 43.7308562,20.3424864 C42.9727367,20.3424864 42.3472882,20.0795761 41.8545106,19.5540718 C41.3554153,19.0154379 41.1058676,18.3600605 41.1058676,17.5877812 C41.1058676,16.822146 41.3554153,16.1732543 41.8545106,15.6411061 C42.3472882,15.1089579 42.9695779,14.8430421 43.7213797,14.8430421 C44.4131637,14.8430421 44.9975474,15.1284152 45.4697926,15.6994779 Z M45.547184,17.5877812 C45.547184,17.0947058 45.3924013,16.6793012 45.0812564,16.3418838 C44.7701116,15.9979807 44.3657812,15.8260292 43.8666859,15.8260292 C43.3675906,15.8260292 42.9632602,15.9979807 42.6521154,16.3418838 C42.3409705,16.6793012 42.1846084,17.0947058 42.1846084,17.5877812 C42.1846084,18.0939864 42.3409705,18.5157185 42.6521154,18.8531359 C42.9632602,19.1905533 43.3675906,19.3593411 43.8666859,19.3593411 C44.3657812,19.3593411 44.7701116,19.1905533 45.0812564,18.8531359 C45.3924013,18.5157185 45.547184,18.0939864 45.547184,17.5877812 Z" id="Shape"></path>
                        <path d="M50.154339,20.3424864 C49.4546579,20.3424864 48.8971242,20.1379478 48.4833174,19.7291872 C48.0679311,19.3204265 47.8610277,18.7656573 47.8610277,18.0647214 L47.8610277,14.9694352 L48.930292,14.9694352 L48.930292,18.0550719 C48.930292,18.450861 49.0376922,18.7656573 49.2556516,18.9991445 C49.4720315,19.2327898 49.7721204,19.3495333 50.154339,19.3495333 C50.5428752,19.3495333 50.8445435,19.2361117 51.0577646,19.0089522 C51.2709857,18.7817926 51.378386,18.4638325 51.378386,18.0550719 L51.378386,14.9694352 L52.4571268,14.9694352 L52.4571268,18.0647214 C52.4571268,18.7786288 52.2533822,19.3365618 51.845893,19.7389949 C51.4368244,20.1412698 50.872973,20.3424864 50.154339,20.3424864 Z" id="Path"></path>
                        <polygon id="Path" points="58.5599882 20.2159351 57.1811585 20.2159351 55.2953364 17.8312343 54.8388853 18.2496445 54.8388853 20.2159351 53.769621 20.2159351 53.769621 12.8378369 54.8388853 12.8378369 54.8388853 16.9940975 57.0437494 14.9694352 58.4541674 14.9694352 56.0439794 17.1497556"></polygon>
                        <path d="M62.9428662,15.6994779 L62.9428662,14.9694352 L63.9742245,14.9694352 L63.9742245,20.2159351 L62.9428662,20.2159351 L62.9428662,19.4955419 C62.470621,20.0601188 61.8751814,20.3424864 61.1549679,20.3424864 C60.3968485,20.3424864 59.7713999,20.0764123 59.2802017,19.5442641 C58.7874241,19.012116 58.5410352,18.3502527 58.5410352,17.5586745 C58.5410352,16.7734237 58.7874241,16.124532 59.2802017,15.6118411 C59.7713999,15.0993084 60.3968485,14.8430421 61.1549679,14.8430421 C61.8751814,14.8430421 62.470621,15.1284152 62.9428662,15.6994779 Z M61.3002741,19.3593411 C61.7867341,19.3593411 62.1926439,19.1873895 62.516424,18.8434864 C62.8338866,18.506069 62.9918281,18.0875006 62.9918281,17.5877812 C62.9918281,17.0947058 62.8338866,16.6793012 62.516424,16.3418838 C62.1926439,15.9979807 61.7867341,15.8260292 61.3002741,15.8260292 C60.8027582,15.8260292 60.3968485,15.9979807 60.0857036,16.3418838 C59.7761382,16.6793012 59.619776,17.0978696 59.619776,17.597589 C59.619776,18.0971502 59.7761382,18.5157185 60.0857036,18.8531359 C60.3968485,19.1905533 60.8027582,19.3593411 61.3002741,19.3593411 Z" id="Shape"></path>
                        <path d="M67.8122042,20.3326786 C66.9956464,20.3326786 66.3322919,20.0764123 65.8205613,19.5637214 C65.3009336,19.0445447 65.0419094,18.3891673 65.0419094,17.597589 C65.0419094,16.7993667 65.3056718,16.1408255 65.8300377,15.6216488 C66.3607214,15.1024722 67.0351318,14.8430421 67.8516896,14.8430421 C68.3760555,14.8430421 68.8577772,14.9694352 69.2936959,15.2225377 C69.731194,15.4756403 70.0533948,15.8163796 70.2618776,16.2445975 L69.3774049,16.740995 C69.2147251,16.4619494 68.9999246,16.2396937 68.7298446,16.0742279 C68.461344,15.9087621 68.1723109,15.8260292 67.8611661,15.8260292 C67.3620708,15.8260292 66.9482639,15.9948169 66.6165867,16.3322343 C66.2864888,16.6761374 66.1206502,17.0978696 66.1206502,17.597589 C66.1206502,18.0841787 66.28333,18.4995833 66.6071102,18.8434864 C66.9245727,19.1809037 67.3304825,19.3495333 67.8216807,19.3495333 C68.1328255,19.3495333 68.4313351,19.2652185 68.7156299,19.0965889 C69.0015041,18.9278012 69.2115663,18.7136131 69.347396,18.454183 L70.2318687,18.9700377 C70.0186476,19.3787983 69.693288,19.708148 69.25579,19.9579286 C68.8182919,20.2077092 68.3365701,20.3326786 67.8122042,20.3326786 Z" id="Path"></path>
                        <path d="M71.9613287,14.2784651 C71.7544253,14.2784651 71.5791101,14.2087037 71.4369627,14.069181 C71.2948154,13.9296582 71.2237417,13.7561247 71.2237417,13.5484224 C71.2237417,13.3472059 71.2948154,13.1785763 71.4369627,13.0422173 C71.5791101,12.9060164 71.7544253,12.8378369 71.9613287,12.8378369 C72.1634939,12.8378369 72.3309119,12.9060164 72.4667416,13.0422173 C72.6041508,13.1785763 72.6720657,13.3472059 72.6720657,13.5484224 C72.6720657,13.7561247 72.6041508,13.9296582 72.4667416,14.069181 C72.3309119,14.2087037 72.1634939,14.2784651 71.9613287,14.2784651 Z M70.6693668,22.4546273 C70.2287099,22.4546273 69.8891356,22.3767983 69.6490644,22.220982 L69.8622855,21.3449307 C70.1355244,21.4358895 70.3550631,21.4812897 70.5240606,21.4812897 C71.1195002,21.4812897 71.4180098,21.1275789 71.4180098,20.4203154 L71.4180098,14.9694352 L72.487274,14.9694352 L72.487274,20.4008581 C72.487274,21.0692071 72.3261737,21.578576 72.0055523,21.9289649 C71.684931,22.2793538 71.2395358,22.4546273 70.6693668,22.4546273 Z" id="Shape"></path>
                        <path d="M77.9678458,15.6994779 L77.9678458,14.9694352 L78.9976247,14.9694352 L78.9976247,20.2159351 L77.9678458,20.2159351 L77.9678458,19.4955419 C77.4956006,20.0601188 76.8985815,20.3424864 76.1799475,20.3424864 C75.421828,20.3424864 74.7963795,20.0764123 74.3036019,19.5442641 C73.8124036,19.012116 73.5660148,18.3502527 73.5660148,17.5586745 C73.5660148,16.7734237 73.8124036,16.124532 74.3036019,15.6118411 C74.7963795,15.0993084 75.421828,14.8430421 76.1799475,14.8430421 C76.8985815,14.8430421 77.4956006,15.1284152 77.9678458,15.6994779 Z M76.3252537,19.3593411 C76.8117137,19.3593411 77.216044,19.1873895 77.5398242,18.8434864 C77.8572867,18.506069 78.0168077,18.0875006 78.0168077,17.5877812 C78.0168077,17.0947058 77.8572867,16.6793012 77.5398242,16.3418838 C77.216044,15.9979807 76.8117137,15.8260292 76.3252537,15.8260292 C75.8261584,15.8260292 75.421828,15.9979807 75.1106832,16.3418838 C74.7995383,16.6793012 74.6447556,17.0978696 74.6447556,17.597589 C74.6447556,18.0971502 74.7995383,18.5157185 75.1106832,18.8531359 C75.421828,19.1905533 75.8261584,19.3593411 76.3252537,19.3593411 Z" id="Shape"></path>
                        <path d="M86.2092359,20.3230291 C85.1668216,20.3230291 84.2918254,19.9789678 83.5858267,19.2911615 C82.8719309,18.5968696 82.5165624,17.7143325 82.5165624,16.6437087 C82.5165624,15.5534693 82.8782486,14.6579608 83.6047797,13.9571831 C84.3297314,13.2499196 85.2078864,12.8962087 86.2376653,12.8962087 C86.8804874,12.8962087 87.4790859,13.0390535 88.0366196,13.3245848 C88.5862562,13.6036304 89.0174366,13.9766403 89.3285815,14.4439309 L88.532556,15.1641659 C87.9418546,14.3790734 87.186894,13.986448 86.2676742,13.986448 C85.5411431,13.986448 84.9267505,14.2395506 84.4213375,14.7455976 C83.9222422,15.2582885 83.6726946,15.8908867 83.6726946,16.6437087 C83.6726946,17.4028582 83.9190834,18.0258069 84.411861,18.5125548 C84.9093769,18.9991445 85.5253489,19.2425975 86.2581977,19.2425975 C87.2105853,19.2425975 87.98134,18.8531359 88.570462,18.0745291 L89.3680668,18.7753069 C89.0237543,19.2490832 88.5736208,19.6254151 88.0160872,19.9044607 C87.4601329,20.1835063 86.8567962,20.3230291 86.2092359,20.3230291 Z" id="Path"></path>
                        <path d="M91.3597098,20.2159351 L90.2904455,20.2159351 L90.2904455,12.8378369 L91.3312803,12.8378369 L91.3312803,15.6314566 C91.486063,15.3848397 91.7119194,15.190109 92.0056907,15.0474224 C92.3010414,14.9045776 92.6295598,14.8332343 92.9928254,14.8332343 C93.569312,14.8332343 94.055772,15.0214794 94.4506259,15.3978113 C94.8454798,15.7741431 95.0429067,16.3159408 95.0429067,17.0232043 L95.0429067,20.2159351 L93.9736424,20.2159351 L93.9736424,17.3250291 C93.9736424,16.8512528 93.8599245,16.4831467 93.6340681,16.2202364 C93.4066323,15.9574843 93.1033845,15.8260292 92.7211659,15.8260292 C92.318415,15.8260292 91.991476,15.965552 91.7387695,16.2445975 C91.486063,16.5236431 91.3597098,16.8870035 91.3597098,17.3346787 L91.3597098,20.2159351 Z" id="Path"></path>
                        <path d="M96.0537326,17.5877812 C96.0537326,16.8286317 96.3127568,16.17974 96.830805,15.6411061 C97.355171,15.1024722 98.0201049,14.8332343 98.8240274,14.8332343 C99.6263705,14.8332343 100.288146,15.1024722 100.806194,15.6411061 C101.33056,16.1732543 101.592743,16.822146 101.592743,17.5877812 C101.592743,18.3665462 101.33056,19.0219237 100.806194,19.5540718 C100.294463,20.0860618 99.6326881,20.3521359 98.8240274,20.3521359 C98.0201049,20.3521359 97.355171,20.0860618 96.830805,19.5540718 C96.3127568,19.0154379 96.0537326,18.3600605 96.0537326,17.5877812 Z M100.514002,17.5877812 C100.514002,17.1076773 100.349743,16.6955947 100.019645,16.3516916 C99.7021824,16.0013027 99.3025903,15.8260292 98.8240274,15.8260292 C98.3502027,15.8260292 97.9490312,16.0013027 97.6189334,16.3516916 C97.2951532,16.6955947 97.1324734,17.1076773 97.1324734,17.5877812 C97.1324734,18.0745291 97.2951532,18.4897755 97.6189334,18.8336787 C97.9490312,19.1775818 98.3502027,19.3495333 98.8240274,19.3495333 C99.2962726,19.3495333 99.6942853,19.1775818 100.019645,18.8336787 C100.349743,18.4897755 100.514002,18.0745291 100.514002,17.5877812 Z" id="Shape"></path>
                        <path d="M106.714787,15.6994779 L106.714787,12.8378369 L107.793528,12.8378369 L107.793528,20.2159351 L106.73374,20.2159351 L106.73374,19.4858923 C106.280448,20.056955 105.694485,20.3424864 104.974271,20.3424864 C104.217731,20.3424864 103.592283,20.0795761 103.099505,19.5540718 C102.60041,19.0154379 102.350862,18.3600605 102.350862,17.5877812 C102.350862,16.822146 102.60041,16.1732543 103.099505,15.6411061 C103.592283,15.1089579 104.214572,14.8430421 104.964795,14.8430421 C105.658158,14.8430421 106.240963,15.1284152 106.714787,15.6994779 Z M106.792179,17.5877812 C106.792179,17.0947058 106.637396,16.6793012 106.326251,16.3418838 C106.015106,15.9979807 105.609196,15.8260292 105.11168,15.8260292 C104.612585,15.8260292 104.206675,15.9979807 103.89711,16.3418838 C103.585965,16.6793012 103.429603,17.0947058 103.429603,17.5877812 C103.429603,18.0939864 103.585965,18.5157185 103.89711,18.8531359 C104.206675,19.1905533 104.612585,19.3593411 105.11168,19.3593411 C105.609196,19.3593411 106.015106,19.1905533 106.326251,18.8531359 C106.637396,18.5157185 106.792179,18.0939864 106.792179,17.5877812 Z" id="Shape"></path>
                        <path d="M111.399334,20.3424864 C110.699652,20.3424864 110.142119,20.1379478 109.726733,19.7291872 C109.312926,19.3204265 109.106022,18.7656573 109.106022,18.0647214 L109.106022,14.9694352 L110.173707,14.9694352 L110.173707,18.0550719 C110.173707,18.450861 110.282687,18.7656573 110.500646,18.9991445 C110.717026,19.2327898 111.017115,19.3495333 111.399334,19.3495333 C111.78787,19.3495333 112.089538,19.2361117 112.302759,19.0089522 C112.51598,18.7817926 112.623381,18.4638325 112.623381,18.0550719 L112.623381,14.9694352 L113.702121,14.9694352 L113.702121,18.0647214 C113.702121,18.7786288 113.498377,19.3365618 113.089308,19.7389949 C112.681819,20.1412698 112.117968,20.3424864 111.399334,20.3424864 Z" id="Path"></path>
                    </g>
                    <g transform="translate(50.690751, 0.005743)">
                        <g transform="translate(0.519151, 0.459991)">
                            <g id="Path">
                                <g transform="translate(13.533378, 16.516284)" fill="url(#linearGradient-1)">
                                    <polygon points="8.79887837 42.3324341 8.79887837 25.7480305 11.1519399 25.7480305 11.1519399 42.3324341 19.909345 42.3324341 19.909345 0.17205838 0.0414732545 0.17205838 0.0414732545 42.3324341"></polygon>
                                </g>
                                <g transform="translate(0.003929, 0.194705)" fill="url(#linearGradient-2)">
                                    <polygon points="8.81415799 0.111497434 0.0152796201 0.111497434 13.563937 25.8958255 22.3628154 25.8958255"></polygon>
                                </g>
                                <g transform="translate(35.743397, 13.202739) scale(-1, 1) translate(-35.743397, -13.202739) translate(24.501962, 0.194705)" fill="url(#linearGradient-3)">
                                    <polygon points="8.81415799 0.111497434 0.0152796201 0.111497434 13.563937 25.8958255 22.3628154 25.8958255"></polygon>
                                </g>
                            </g>
                            <g transform="translate(16.192861, 0.251219)" fill="url(#linearGradient-4)" id="Oval">
                                <ellipse cx="7.31457242" cy="7.34571328" rx="7.27724649" ry="7.28865283"></ellipse>
                            </g>
                        </g>
                        <g transform="translate(0.150585, 33.137044)" fill="url(#linearGradient-5)" id="Path">
                            <g transform="translate(6.874188, 13.274287) scale(-1, 1) rotate(-180.000000) translate(-6.874188, -13.274287) translate(0.343210, 0.266257)">
                                <polygon points="6.88212425 0.111497394 0.044105307 0.111497394 6.0933178 25.8958163 12.9313367 25.8958163"></polygon>
                            </g>
                            <g transform="translate(40.852055, 13.274287) rotate(180.000000) translate(-40.852055, -13.274287) translate(34.321077, 0.266257)">
                                <polygon points="6.88212425 0.111497394 0.044105307 0.111497394 6.0933178 25.8958163 12.9313367 25.8958163"></polygon>
                            </g>
                        </g>
                    </g>
                </g>
            </g>
        </g>
    </g>
</svg>